<?xml version="1.0" standalone="no"?>
<!DOCTYPE svg PUBLIC "-//W3C//DTD SVG 20010904//EN"
 "http://www.w3.org/TR/2001/REC-SVG-20010904/DTD/svg10.dtd">
<svg version="1.0" xmlns="http://www.w3.org/2000/svg"
 width="512.000000pt" height="512.000000pt" viewBox="0 0 512.000000 512.000000"
 preserveAspectRatio="xMidYMid meet">

<g transform="translate(0.000000,512.000000) scale(0.100000,-0.100000)"
fill="#000000" stroke="none">
<path d="M3561 5110 c-167 -24 -311 -69 -454 -142 -378 -194 -642 -539 -733
-958 -22 -100 -30 -355 -15 -461 88 -620 570 -1102 1190 -1190 106 -15 361 -7
461 15 265 58 492 179 685 367 207 201 334 431 397 717 32 145 32 407 0 551
-64 285 -182 502 -381 702 -260 260 -571 394 -936 404 -82 2 -179 0 -214 -5z
m294 -210 c270 -31 515 -149 706 -339 467 -468 459 -1216 -19 -1673 -258 -246
-602 -362 -948 -318 -743 93 -1208 835 -969 1546 56 166 142 302 279 440 158
159 320 253 528 309 156 41 276 51 423 35z"/>
<path d="M3678 4463 c-14 -9 -31 -27 -37 -40 -7 -15 -11 -125 -11 -303 l0
-280 -281 0 c-244 0 -285 -2 -309 -17 -55 -32 -67 -112 -26 -160 l24 -28 294
-5 293 -5 5 -293 5 -294 28 -24 c48 -41 128 -29 160 26 15 24 17 65 17 309 l0
281 280 0 c184 0 287 4 304 11 60 28 71 122 20 170 l-26 24 -288 3 -289 3 -3
289 -3 290 -26 26 c-33 33 -94 41 -131 17z"/>
<path d="M53 4678 c-57 -28 -67 -122 -17 -169 25 -24 30 -24 257 -29 220 -5
235 -7 282 -30 65 -32 122 -90 150 -154 16 -35 103 -455 274 -1312 138 -694
251 -1264 251 -1268 0 -3 -67 -6 -150 -6 -219 0 -288 -20 -372 -107 -59 -60
-83 -124 -83 -218 0 -67 4 -89 28 -137 30 -62 83 -115 149 -150 l43 -23 1883
-3 1883 -2 30 29 c48 49 34 142 -26 169 -20 9 -460 12 -1861 12 -2038 0 -1880
-5 -1910 67 -19 43 -5 93 33 123 26 20 37 20 1650 20 1756 0 1668 -3 1701 51
15 24 92 397 92 445 0 43 -41 91 -84 100 -35 6 -81 -11 -105 -40 -7 -8 -27
-86 -45 -173 l-32 -158 -1300 -3 -1299 -2 -189 947 c-104 522 -191 954 -194
961 -3 9 75 12 371 12 256 0 384 4 401 11 60 28 71 122 20 170 l-26 24 -406 5
-406 5 -48 240 c-39 197 -54 253 -84 314 -65 132 -196 238 -339 276 -70 18
-485 21 -522 3z"/>
<path d="M1570 830 c-165 -61 -273 -200 -287 -371 -11 -124 38 -250 132 -338
213 -201 547 -140 676 124 32 67 34 75 34 180 0 103 -2 114 -32 177 -44 93
-109 160 -201 205 -68 34 -83 38 -171 40 -77 3 -107 -1 -151 -17z m204 -202
c81 -25 146 -118 146 -210 0 -51 -46 -135 -91 -165 -92 -61 -192 -51 -269 27
-106 105 -81 268 51 334 58 29 101 32 163 14z"/>
<path d="M3490 830 c-165 -61 -273 -200 -287 -371 -11 -124 38 -250 132 -338
213 -201 547 -140 676 124 32 67 34 75 34 180 0 103 -2 114 -32 177 -44 93
-109 160 -201 205 -68 34 -83 38 -171 40 -77 3 -107 -1 -151 -17z m204 -202
c81 -25 146 -118 146 -210 0 -51 -46 -135 -91 -165 -92 -61 -192 -51 -269 27
-106 105 -81 268 51 334 58 29 101 32 163 14z"/>
</g>
</svg>
