<?xml version="1.0" encoding="UTF-8"?>
<svg version="1.1" xmlns="http://www.w3.org/2000/svg" width="4201" height="4059">
<path d="M0 0 C3.82638971 1.53055588 5.77931523 2.37695352 8.79296875 4.80078125 C9.49591064 5.35878418 10.19885254 5.91678711 10.9230957 6.49169922 C11.67034912 7.09256348 12.41760254 7.69342773 13.1875 8.3125 C19.29754977 13.14856056 25.46641871 17.85301845 31.8125 22.375 C38.47165859 27.128617 45.00908895 32.01919511 51.5 37 C57.93169411 41.93395044 64.4052457 46.78610254 71 51.5 C78.51241159 56.86983431 85.85715094 62.43845495 93.18359375 68.05859375 C99.43679015 72.84261038 105.77739461 77.48230136 112.18261719 82.05981445 C119.05147102 86.9896829 125.75629411 92.1247011 132.46484375 97.26953125 C137.77683673 101.33395129 143.14108303 105.29023722 148.61425781 109.13354492 C154.96028982 113.62168033 161.09399234 118.38888805 167.26171875 123.1171875 C172.1176556 126.83096316 176.99698678 130.4869883 182 134 C188.90146551 138.84606537 195.56998614 143.98717466 202.26171875 149.1171875 C207.11766027 152.83096673 211.99705296 156.48689003 217 160 C222.86667635 164.12097811 228.56129716 168.44979696 234.25 172.8125 C240.76526776 177.8084707 247.32008832 182.72628514 254 187.5 C261.60816392 192.93707865 269.04486746 198.57910339 276.46484375 204.26953125 C281.77683673 208.33395129 287.14108303 212.29023722 292.61425781 216.13354492 C298.96028982 220.62168033 305.09399234 225.38888805 311.26171875 230.1171875 C316.1176556 233.83096316 320.99698678 237.4869883 326 241 C332.90146551 245.84606537 339.56998614 250.98717466 346.26171875 256.1171875 C351.11766027 259.83096673 355.99705296 263.48689003 361 267 C366.86667635 271.12097811 372.56129716 275.44979696 378.25 279.8125 C384.76526776 284.8084707 391.32008832 289.72628514 398 294.5 C405.60816392 299.93707865 413.04486746 305.57910339 420.46484375 311.26953125 C425.77683673 315.33395129 431.14108303 319.29023722 436.61425781 323.13354492 C442.96028982 327.62168033 449.09399234 332.38888805 455.26171875 337.1171875 C460.11766027 340.83096673 464.99705296 344.48689003 470 348 C475.86667635 352.12097811 481.56129716 356.44979696 487.25 360.8125 C494.47022511 366.34903886 501.7607638 371.75735067 509.1640625 377.04589844 C516.19545491 382.09111016 523.06686 387.33952518 529.921875 392.62109375 C530.7571875 393.26304687 531.5925 393.905 532.453125 394.56640625 C533.18692383 395.13302979 533.92072266 395.69965332 534.67675781 396.28344727 C537.02148456 398.13557426 537.02148456 398.13557426 540.0990597 399.44011474 C543.31822797 402.28081484 543.44398228 402.64740219 543.74519098 406.67743707 C543.77375521 408.6763276 543.76871235 410.67585387 543.73828697 412.67471695 C543.74521004 413.78015197 543.7521331 414.88558699 543.75926596 416.02452004 C543.77525895 419.76136705 543.74814095 423.49669008 543.7215271 427.23345947 C543.72414147 429.92632187 543.72913711 432.61908352 543.7370621 435.31192565 C543.74951902 441.1832828 543.73961801 447.05427563 543.71523285 452.92559052 C543.67907367 461.65598785 543.6772132 470.38615471 543.68248478 479.11661327 C543.69037503 493.80136578 543.67029396 508.48595651 543.63438034 523.17066193 C543.59890222 537.71450856 543.57578954 552.25828784 543.56926346 566.80217743 C543.56885102 567.70580057 543.56843858 568.60942371 543.56801365 569.54042937 C543.5659837 574.12930276 543.56417538 578.71817621 543.56245239 583.30704972 C543.54984327 615.82681602 543.50940062 648.34649426 543.45263672 680.86621094 C543.39754815 712.46256033 543.35503766 744.05888565 543.32958984 775.65527344 C543.32840611 777.11567096 543.32840611 777.11567096 543.32719846 778.60557147 C543.31928747 788.38266956 543.31163257 798.15976784 543.3041653 807.93686628 C543.28894721 827.85470169 543.2720197 847.77253553 543.25405884 867.69036865 C543.2532351 868.60619827 543.25241136 869.52202789 543.25156266 870.46560992 C543.19634019 931.64377661 543.10126683 992.82189432 543 1054 C544.6114356 1054.39830332 544.6114356 1054.39830332 546.25542545 1054.80465317 C547.69203391 1055.16134797 549.12862475 1055.51811369 550.56520081 1055.87493896 C551.27003554 1056.04895422 551.97487027 1056.22296947 552.70106363 1056.40225792 C559.54132966 1058.10407425 566.28423677 1060.08891665 573.02734375 1062.140625 C574.34943005 1062.53964123 575.67163362 1062.93826906 576.99394226 1063.33654785 C579.82421678 1064.18964388 582.65384567 1065.04483471 585.48297119 1065.9017334 C592.47623274 1068.01945489 599.47335894 1070.12435612 606.47031403 1072.22983551 C608.11493746 1072.72474584 609.75952433 1073.21977767 611.40407562 1073.71492767 C629.62104372 1079.19928816 647.86009113 1084.60824222 666.10342407 1090.00414276 C673.78147451 1092.2752342 681.45909025 1094.54779516 689.13671875 1096.8203125 C690.41862154 1097.19971418 690.41862154 1097.19971418 691.72642136 1097.58678055 C711.96968149 1103.57857551 732.2040938 1109.60002863 752.4375 1115.625 C754.20450739 1116.15113681 755.97151586 1116.67727004 757.73852539 1117.20339966 C770.11519476 1120.88859986 770.11519476 1120.88859986 776.12643814 1122.67862892 C793.86125035 1127.95969668 811.59793813 1133.23444496 829.3353157 1138.50688934 C831.62295178 1139.18689116 833.91058247 1139.86691108 836.19821167 1140.54693604 C842.25930814 1142.34866286 848.32041438 1144.15035681 854.38154602 1145.95196533 C868.93601699 1150.27813146 883.49025798 1154.60507102 898.04446697 1158.93211842 C903.45222846 1160.53986736 908.86001963 1162.14751642 914.26782227 1163.75512695 C928.83694075 1168.08621925 943.40587358 1172.41793337 957.97423553 1176.75156975 C964.83691592 1178.79296343 971.69968504 1180.83405877 978.5625 1182.875 C979.32110573 1183.10060482 980.07971146 1183.32620964 980.86130524 1183.55865097 C1005.86097248 1190.99316438 1030.86675134 1198.40691008 1055.875 1205.8125 C1091.63515849 1216.4020088 1127.38236793 1227.03471199 1163.12636948 1237.67861176 C1181.62432282 1243.18692488 1200.12434811 1248.68825816 1218.625 1254.1875 C1219.37163658 1254.40943653 1220.11827316 1254.63137306 1220.8875351 1254.86003494 C1226.88289784 1256.64214409 1232.87826221 1258.42424777 1238.8736496 1260.20627403 C1250.20951875 1263.57566917 1261.54505254 1266.94619076 1272.88040161 1270.31733513 C1277.97606694 1271.83276486 1283.07177242 1273.34805958 1288.16747665 1274.8633585 C1292.22222457 1276.06912477 1296.27694622 1277.27497922 1300.331604 1278.48104858 C1304.10265804 1279.60275818 1307.87378399 1280.72422574 1311.6449604 1281.84552383 C1313.01319588 1282.2523929 1314.38140598 1282.6593473 1315.74958611 1283.06640244 C1325.82718464 1286.06458021 1335.91301847 1289.03324073 1346 1292 C1346 1124.36 1346 956.72 1346 784 C1349.41385521 784.68277104 1352.0289148 785.28228252 1355.17700195 786.50854492 C1355.97915634 786.81874573 1356.78131073 787.12894653 1357.60777283 787.44854736 C1358.47584061 787.78908142 1359.34390839 788.12961548 1360.23828125 788.48046875 C1361.16560562 788.84058044 1362.09292999 789.20069214 1363.0483551 789.57171631 C1366.13801011 790.77289457 1369.22526705 791.98011157 1372.3125 793.1875 C1374.50592043 794.04200916 1376.6994447 794.89625181 1378.89306641 795.75024414 C1401.14651975 804.42107168 1423.37186681 813.16400986 1445.59646606 821.90846252 C1457.66494067 826.65633161 1469.73834523 831.39159842 1481.8125 836.125 C1483.91780907 836.95043161 1486.02311506 837.77587105 1488.12841797 838.60131836 C1492.32077274 840.24502596 1496.51316016 841.88865026 1500.70556641 843.53222656 C1510.24027821 847.27026172 1519.77453746 851.0094509 1529.30883789 854.74853516 C1532.49428822 855.99776003 1535.67975801 857.24693526 1538.86523438 858.49609375 C1548.47393082 862.26408352 1558.08255111 866.03226699 1567.69082642 869.80133057 C1589.12405435 878.20898397 1610.55872346 886.61289064 1632 895 C1654.52010194 903.80910973 1677.03279106 912.63707186 1699.54443359 921.46777344 C1705.95265135 923.98149756 1712.36106001 926.49473469 1718.76953125 929.0078125 C1719.82039917 929.41990967 1720.87126709 929.83200684 1721.95397949 930.2565918 C1725.13598307 931.50440284 1728.31799072 932.7522035 1731.5 934 C1743.23045256 938.59999212 1754.96089851 943.20000071 1766.69082642 947.80133057 C1788.12405435 956.20898397 1809.55872346 964.61289064 1831 973 C1853.52010194 981.80910973 1876.03279106 990.63707186 1898.54443359 999.46777344 C1904.95265135 1001.98149756 1911.36106001 1004.49473469 1917.76953125 1007.0078125 C1918.82039917 1007.41990967 1919.87126709 1007.83200684 1920.95397949 1008.2565918 C1924.13598307 1009.50440284 1927.31799072 1010.7522035 1930.5 1012 C1942.23045256 1016.59999212 1953.96089851 1021.20000071 1965.69082642 1025.80133057 C1988.05936373 1034.57587958 2010.43003094 1043.34490572 2032.80697632 1052.09799194 C2046.19099439 1057.33353357 2059.57309431 1062.57394066 2072.95239258 1067.8215332 C2077.3471427 1069.54508631 2081.74285922 1071.26613843 2086.1394043 1072.98510742 C2095.18864759 1076.52548028 2104.23170964 1080.07512991 2113.23046875 1083.7421875 C2114.55570696 1084.27837252 2115.88105921 1084.81427578 2117.20654297 1085.34985352 C2119.51403702 1086.2858181 2121.81696557 1087.23316917 2124.11376953 1088.19506836 C2125.0932959 1088.59089111 2126.07282227 1088.98671387 2127.08203125 1089.39453125 C2127.89905518 1089.73331299 2128.7160791 1090.07209473 2129.55786133 1090.42114258 C2136.24062444 1092.00515051 2142.79258124 1088.23441969 2148.8515625 1085.72265625 C2149.92180664 1085.28479294 2150.99205078 1084.84692963 2152.09472656 1084.39579773 C2155.6072282 1082.95716506 2159.11608219 1081.50984929 2162.625 1080.0625 C2165.07706842 1079.05637426 2167.52938235 1078.05084666 2169.98193359 1077.04589844 C2174.958122 1075.00620146 2179.93276343 1072.96277954 2184.90625 1070.91650391 C2191.20504406 1068.32558046 2197.50753114 1065.74382497 2203.8125 1063.16796875 C2205.17766251 1062.61019493 2205.17766251 1062.61019493 2206.57040405 1062.04115295 C2208.36762774 1061.30686678 2210.16485867 1060.57259832 2211.96209717 1059.83834839 C2216.42602361 1058.01390812 2220.8887928 1056.18664256 2225.3515625 1054.359375 C2235.31357231 1050.28068748 2245.27661884 1046.2045377 2255.2399292 1042.12902832 C2259.82666209 1040.25278974 2264.41332773 1038.37638676 2269 1036.5 C2270.83333301 1035.74999921 2272.66666634 1034.99999921 2274.5 1034.25 C2275.4075 1033.87875 2276.315 1033.5075 2277.25 1033.125 C2280 1032 2282.75 1030.875 2285.5 1029.75 C2286.40747482 1029.37876007 2287.31494965 1029.00752014 2288.24992371 1028.62503052 C2290.0835107 1027.87492721 2291.91709835 1027.12482548 2293.75068665 1026.37472534 C2298.33014422 1024.50131896 2302.90959057 1022.62788517 2307.48901367 1020.75439453 C2315.78525714 1017.3603447 2324.08158552 1013.96650315 2332.37832642 1010.57366943 C2350.75601784 1003.05835705 2369.13205254 995.5391004 2387.5 988 C2406.80003952 980.07832362 2426.10914944 972.17889151 2445.41943359 964.28222656 C2453.69829996 960.89662564 2461.97664953 957.50976145 2470.2550354 954.12298584 C2474.83666884 952.24860485 2479.41833614 950.37430664 2484 948.5 C2485.8333335 947.7500004 2487.66666683 947.0000004 2489.5 946.25 C2493.16666667 944.75 2496.83333333 943.25 2500.5 941.75 C2501.40747482 941.37876007 2502.31494965 941.00752014 2503.24992371 940.62503052 C2505.0835107 939.87492721 2506.91709835 939.12482548 2508.75068665 938.37472534 C2513.33014422 936.50131896 2517.90959057 934.62788517 2522.48901367 932.75439453 C2530.78525714 929.3603447 2539.08158552 925.96650315 2547.37832642 922.57366943 C2565.75601784 915.05835705 2584.13205254 907.5391004 2602.5 900 C2621.80003952 892.07832362 2641.10914944 884.17889151 2660.41943359 876.28222656 C2668.69829996 872.89662564 2676.97664953 869.50976145 2685.2550354 866.12298584 C2689.83666884 864.24860485 2694.41833614 862.37430664 2699 860.5 C2700.8333335 859.7500004 2702.66666683 859.0000004 2704.5 858.25 C2722.83333333 850.75 2741.16666667 843.25 2759.5 835.75 C2760.40747482 835.37876007 2761.31494965 835.00752014 2762.24992371 834.62503052 C2764.0835107 833.87492721 2765.91709835 833.12482548 2767.75068665 832.37472534 C2772.33014422 830.50131896 2776.90959057 828.62788517 2781.48901367 826.75439453 C2789.78505869 823.36042588 2798.08118806 819.96666413 2806.37773132 816.57391357 C2811.02270928 814.67441034 2815.66762158 812.77474661 2820.3125 810.875 C2821.21509552 810.50584473 2822.11769104 810.13668945 2823.04763794 809.75634766 C2838.34734714 803.49842975 2853.64188622 797.22795893 2868.93286133 790.94873047 C2870.10007217 790.46954666 2870.10007217 790.46954666 2871.29086304 789.98068237 C2872.73082417 789.38950941 2874.1707105 788.79815422 2875.61050415 788.20657349 C2877.40631168 787.46936329 2879.20311317 786.73457558 2881 786 C2881.91724854 785.60683594 2882.83449707 785.21367187 2883.77954102 784.80859375 C2886 784 2886 784 2889 784 C2889 948.34 2889 1112.68 2889 1282 C2916.72 1273.75 2944.44 1265.5 2973 1257 C2994.63681929 1250.56646071 3016.2737127 1244.13317745 3037.91113281 1237.70166016 C3047.09449087 1234.97198182 3056.2777293 1232.24190118 3065.4609375 1229.51171875 C3066.22522694 1229.28449442 3066.98951637 1229.05727009 3067.77696609 1228.82316017 C3071.63962187 1227.67478526 3075.50227592 1226.52640455 3079.3649292 1225.37802124 C3086.30598618 1223.31441838 3093.2470584 1221.25086679 3100.18812943 1219.18731117 C3104.0420869 1218.04154287 3107.8960434 1216.89577127 3111.75 1215.75 C3113.29166666 1215.29166665 3114.83333333 1214.83333332 3116.375 1214.375 C3117.138125 1214.148125 3117.90125 1213.92125 3118.6875 1213.6875 C3121 1213 3123.3125 1212.3125 3125.625 1211.625 C3126.7696842 1211.28468844 3126.7696842 1211.28468844 3127.93749332 1210.93750191 C3129.47918219 1210.47916203 3131.02087111 1210.02082234 3132.56256008 1209.56248283 C3136.41638761 1208.41675123 3140.27021416 1207.27101633 3144.1240387 1206.12527466 C3151.06558735 1204.06155638 3158.0071429 1201.9978613 3164.94873524 1199.93428993 C3168.80827627 1198.78693881 3172.66781154 1197.6395683 3176.52734375 1196.4921875 C3177.2913191 1196.26506954 3178.05529446 1196.03795158 3178.84242058 1195.80395126 C3189.55330889 1192.61972974 3200.26387616 1189.43443038 3210.97423553 1186.24843025 C3217.83691592 1184.20703657 3224.69968504 1182.16594123 3231.5625 1180.125 C3232.32110573 1179.89939518 3233.07971146 1179.67379036 3233.86130524 1179.44134903 C3259.70637846 1171.75542499 3285.55814197 1164.09222537 3311.41208649 1156.436203 C3338.42666496 1148.43627829 3365.43477047 1140.41482787 3392.4375 1132.375 C3393.31273819 1132.11440544 3394.18797638 1131.85381088 3395.08973694 1131.58531952 C3402.10198003 1129.49745072 3409.11419393 1127.40948388 3416.12636948 1125.32138824 C3433.86120496 1120.04031605 3451.59791554 1114.76556176 3469.3353157 1109.49311066 C3471.62295178 1108.81310884 3473.91058247 1108.13308892 3476.19821167 1107.45306396 C3482.25930814 1105.65133714 3488.32041438 1103.84964319 3494.38154602 1102.04803467 C3501.98976126 1099.78657129 3509.59794904 1097.52501563 3517.20605469 1095.26318359 C3517.96838378 1095.03654935 3518.73071287 1094.8099151 3519.51614285 1094.57641315 C3523.37850098 1093.42815253 3527.24084372 1092.27984017 3531.10316467 1091.13145447 C3538.01071514 1089.07766249 3544.91832806 1087.02408254 3551.82637501 1084.97196102 C3555.62518976 1083.84346936 3559.42393981 1082.71476003 3563.22265625 1081.5859375 C3563.97709959 1081.36175203 3564.73154293 1081.13756657 3565.50884819 1080.9065876 C3576.24094234 1077.71703907 3586.96986852 1074.51699999 3597.6968689 1071.31036377 C3603.76696478 1069.49586985 3609.83784773 1067.68401584 3615.90891075 1065.87276077 C3620.87698096 1064.39030272 3625.84396583 1062.90427727 3630.81017971 1061.41561317 C3633.86355798 1060.50126012 3636.91793796 1059.5902912 3639.97261238 1058.68027878 C3641.39217074 1058.25661026 3642.81130226 1057.8315086 3644.22997856 1057.40489578 C3646.16578276 1056.82297237 3648.10323493 1056.24653934 3650.04077148 1055.67041016 C3651.12551254 1055.34593903 3652.2102536 1055.0214679 3653.3278656 1054.68716431 C3656 1054 3656 1054 3659 1054 C3658.99719235 1053.43616645 3658.9943847 1052.8723329 3658.99149197 1052.29141348 C3658.68642394 990.89908762 3658.40373102 929.50667787 3658.23782349 868.11380005 C3658.23533846 867.19658397 3658.23285343 866.27936789 3658.2302931 865.33435739 C3658.17641943 845.40027253 3658.12655635 825.46617954 3658.08082407 805.53207438 C3658.05837222 795.7562444 3658.03503422 785.98041662 3658.01123047 776.20458984 C3658.00887681 775.23178303 3658.00652314 774.25897623 3658.00409816 773.25669042 C3657.927408 741.73105655 3657.79221597 710.20600381 3657.62665003 678.68072193 C3657.45680341 646.28147747 3657.34604847 613.88255454 3657.30953018 581.48287241 C3657.30434347 576.90556407 3657.29848201 572.32825683 3657.29220963 567.75094986 C3657.29099601 566.85007967 3657.2897824 565.94920948 3657.28853201 565.02104019 C3657.26726939 550.52538012 3657.18380953 536.03071491 3657.07702339 521.53546038 C3656.97096783 506.95887442 3656.93059638 492.38327358 3656.95697521 477.80631541 C3656.97065638 469.14732116 3656.93427751 460.4919351 3656.82564422 451.83359334 C3656.75797583 446.04409897 3656.75616023 440.25695753 3656.80702736 434.46729852 C3656.83413919 431.16963397 3656.82339852 427.88011023 3656.75210272 424.5829104 C3656.36465429 405.55613131 3656.36465429 405.55613131 3660.78512374 399.59115687 C3665.00994665 395.3542856 3669.74452404 392.16433817 3674.92277695 389.20535971 C3677.52929819 387.69286172 3679.88014921 385.92432568 3682.24609375 384.0625 C3683.64138503 383.03914751 3685.03846651 382.0182305 3686.4375 381 C3688.02607463 379.83598248 3689.61461527 378.67191857 3691.203125 377.5078125 C3691.99267578 376.93063477 3692.78222656 376.35345703 3693.59570312 375.75878906 C3697.63242703 372.80584847 3701.66033916 369.84096333 3705.6875 366.875 C3706.47890381 366.29234375 3707.27030762 365.7096875 3708.08569336 365.109375 C3713.72816185 360.95023285 3719.3410953 356.75326254 3724.94213867 352.53857422 C3730.90883763 348.0544646 3736.9199963 343.63184863 3742.93359375 339.2109375 C3747.97607338 335.50058782 3752.99769274 331.76430538 3758 328 C3763.72369672 323.69289672 3769.4777517 319.42929949 3775.25 315.1875 C3781.86134909 310.32842718 3788.4422069 305.43110318 3795 300.5 C3802.34699779 294.97545789 3809.72940699 289.50193742 3817.13671875 284.05859375 C3822.76479913 279.91947307 3828.36017402 275.73901937 3833.94238281 271.53833008 C3839.90907923 267.05440668 3845.92008759 262.63178152 3851.93359375 258.2109375 C3856.97607335 254.50058784 3861.99769576 250.76430943 3867 247 C3873.61139541 242.02482518 3880.26703682 237.11187341 3886.93359375 232.2109375 C3891.97607338 228.50058782 3896.99769274 224.76430538 3902 221 C3907.72369672 216.69289672 3913.4777517 212.42929949 3919.25 208.1875 C3925.86134909 203.32842718 3932.4422069 198.43110318 3939 193.5 C3946.34699779 187.97545789 3953.72940699 182.50193742 3961.13671875 177.05859375 C3966.76479913 172.91947307 3972.36017402 168.73901937 3977.94238281 164.53833008 C3983.90907923 160.05440668 3989.92008759 155.63178152 3995.93359375 151.2109375 C4000.97607338 147.50058782 4005.99769274 143.76430538 4011 140 C4016.72369672 135.69289672 4022.4777517 131.42929949 4028.25 127.1875 C4034.86134909 122.32842718 4041.4422069 117.43110318 4048 112.5 C4055.34699779 106.97545789 4062.72940699 101.50193742 4070.13671875 96.05859375 C4075.76479913 91.91947307 4081.36017402 87.73901937 4086.94238281 83.53833008 C4092.90907923 79.05440668 4098.92008759 74.63178152 4104.93359375 70.2109375 C4109.97607335 66.50058784 4114.99769576 62.76430943 4120 59 C4126.61139541 54.02482518 4133.26703682 49.11187341 4139.93359375 44.2109375 C4145.62931064 40.01992378 4151.29405035 35.78981991 4156.94360352 31.53686523 C4162.87017716 27.08181825 4168.84583551 22.69484533 4174.82592773 18.31201172 C4181.2137554 13.6157912 4187.51037029 8.8071656 4193.74584961 3.91040039 C4194.4085083 3.39598389 4195.07116699 2.88156738 4195.75390625 2.3515625 C4196.33470947 1.89604004 4196.9155127 1.44051758 4197.51391602 0.97119141 C4199 0 4199 0 4201 0 C4201 492.69 4201 985.38 4201 1493 C4139.76774199 1512.27682196 4139.76774199 1512.27682196 4120.13070679 1518.28326416 C4113.42661924 1520.33446048 4106.72503934 1522.39382453 4100.0234375 1524.453125 C4099.31063566 1524.67211079 4098.59783382 1524.89109657 4097.86343193 1525.11671829 C4078.45897286 1531.07917703 4059.07371448 1537.10354696 4039.6875 1543.125 C4032.23702381 1545.43894585 4024.78649517 1547.75272277 4017.3359375 1550.06640625 C4016.40789307 1550.35461054 4015.47984863 1550.64281483 4014.52368164 1550.93975258 C3993.95713752 1557.32644376 3973.3854737 1563.69655502 3952.8125 1570.0625 C3951.06961036 1570.60182622 3949.32672095 1571.14115321 3947.58383179 1571.68048096 C3940.61350286 1573.83738048 3933.64313852 1575.99416553 3926.67271423 1578.15075684 C3914.45212619 1581.93170821 3902.23181711 1585.71356 3890.01171875 1589.49609375 C3889.14511942 1589.76433519 3888.27852009 1590.03257664 3887.38566017 1590.30894661 C3883.00811001 1591.66394962 3878.63056457 1593.01896785 3874.25302124 1594.37399292 C3866.37697795 1596.81193595 3858.5008929 1599.24974407 3850.62481117 1601.68756294 C3846.24987242 1603.04170316 3841.87493635 1604.39585201 3837.5 1605.75 C3835.75000001 1606.29166671 3834.00000001 1606.83333337 3832.25 1607.375 C3831.38375 1607.643125 3830.5175 1607.91125 3829.625 1608.1875 C3771 1626.33333333 3712.375 1644.47916667 3653.75 1662.625 C3652.88374087 1662.89312783 3652.01748175 1663.16125566 3651.12497234 1663.43750858 C3649.37506455 1663.97914669 3647.62515674 1664.52078475 3645.87524891 1665.06242275 C3641.49883802 1666.41702586 3637.12242743 1667.77162992 3632.74601746 1669.12623596 C3624.88786541 1671.5585254 3617.02971135 1673.99080832 3609.17154598 1676.4230547 C3604.81878958 1677.7703129 3600.46603495 1679.11757683 3596.11328125 1680.46484375 C3594.81919059 1680.86539128 3594.81919059 1680.86539128 3593.49895668 1681.27403069 C3580.91280638 1685.16971439 3568.32675885 1689.06572999 3555.74076462 1692.96191788 C3491.88126368 1712.73052373 3491.88126368 1712.73052373 3460.32269287 1722.48175049 C3438.81720588 1729.1269185 3417.31466043 1735.78157758 3395.8125 1742.4375 C3394.92142548 1742.71332916 3394.03035095 1742.98915833 3393.11227417 1743.27334595 C3384.9062604 1745.81350314 3376.70026731 1748.3537271 3368.49429321 1750.89401245 C3355.9585154 1754.77465331 3343.42265508 1758.65502751 3330.88671875 1762.53515625 C3329.59240905 1762.93577176 3329.59240905 1762.93577176 3328.27195168 1763.34448051 C3323.9215673 1764.69101241 3319.57118134 1766.03753922 3315.22079468 1767.38406372 C3307.35612926 1769.81832467 3299.49147788 1772.252631 3291.62682533 1774.68693352 C3287.25121745 1776.04129083 3282.87560868 1777.39564527 3278.5 1778.75 C3276.75 1779.29166665 3275 1779.83333332 3273.25 1780.375 C3143.3125 1820.59375 3143.3125 1820.59375 2758.75 1939.625 C2757.88374087 1939.89312783 2757.01748175 1940.16125566 2756.12497234 1940.43750858 C2754.37506455 1940.97914669 2752.62515674 1941.52078475 2750.87524891 1942.06242275 C2746.49883802 1943.41702586 2742.12242743 1944.77162992 2737.74601746 1946.12623596 C2729.88786541 1948.5585254 2722.02971135 1950.99080832 2714.17154598 1953.4230547 C2709.81878958 1954.7703129 2705.46603495 1956.11757683 2701.11328125 1957.46484375 C2699.81919059 1957.86539128 2699.81919059 1957.86539128 2698.49895668 1958.27403069 C2685.91280638 1962.16971439 2673.32675885 1966.06572999 2660.74076462 1969.96191788 C2596.88126368 1989.73052373 2596.88126368 1989.73052373 2565.32269287 1999.48175049 C2543.81720588 2006.1269185 2522.31466043 2012.78157758 2500.8125 2019.4375 C2499.92142548 2019.71332916 2499.03035095 2019.98915833 2498.11227417 2020.27334595 C2489.9062604 2022.81350314 2481.70026731 2025.3537271 2473.49429321 2027.89401245 C2456.60458984 2033.12247725 2439.71470033 2038.35034061 2422.82477188 2043.57807827 C2416.72838542 2045.46502223 2410.63201184 2047.35200784 2404.53564453 2049.23901367 C2390.45399936 2053.59768916 2376.37235257 2057.95635938 2362.29052734 2062.31445312 C2361.40398688 2062.58882832 2360.51744642 2062.86320351 2359.6040411 2063.1458931 C2355.1302568 2064.53047305 2350.65644239 2065.91495553 2346.18257141 2067.29925537 C2337.33169129 2070.03801754 2328.48135169 2072.77850563 2319.63208008 2075.52246094 C2316.16103257 2076.59850909 2312.68991697 2077.6743373 2309.21875 2078.75 C2308.36734121 2079.0138575 2307.51593243 2079.277715 2306.63872337 2079.54956818 C2295.25260355 2083.07711309 2283.85800149 2086.57563194 2272.4553299 2090.04927635 C2237.24223495 2100.78167778 2202.34153271 2112.14555986 2167.65234375 2124.47265625 C2166.50404587 2124.87922455 2165.35574799 2125.28579285 2164.1726532 2125.7046814 C2159.595456 2127.33146686 2155.02965565 2128.96443771 2150.51611328 2130.76123047 C2149.31583496 2131.23061035 2148.11555664 2131.69999023 2146.87890625 2132.18359375 C2145.94763916 2132.5695874 2145.01637207 2132.95558105 2144.05688477 2133.35327148 C2133.99441625 2135.48213332 2123.2202758 2131.14219105 2113.55078125 2128.49609375 C2111.80865103 2128.0248904 2110.06640448 2127.55411699 2108.3240509 2127.08374023 C2103.62831624 2125.81267326 2098.93604716 2124.52925249 2094.24478912 2123.2417717 C2091.30037519 2122.43417439 2088.35519053 2121.62944052 2085.40985107 2120.82522583 C2049.03812536 2110.88351358 2012.9456526 2100.12274591 1976.92454529 2088.98590088 C1963.9709435 2084.98149447 1950.99192201 2081.0657897 1938 2077.1875 C1934.0844138 2076.01636503 1930.1691458 2074.84416826 1926.25390625 2073.671875 C1925.27973251 2073.38030518 1924.30555878 2073.08873535 1923.30186462 2072.78833008 C1910.83686951 2069.0558521 1898.3802373 2065.29559644 1885.92319489 2061.53668213 C1883.93698607 2060.93734492 1881.95076445 2060.33805019 1879.96453857 2059.73876953 C1877.28257114 2058.92956971 1874.60060443 2058.12036746 1871.91864014 2057.31115723 C1870.91002552 2057.00683525 1870.91002552 2057.00683525 1869.88103485 2056.69636536 C1868.51087954 2056.28295207 1867.14072676 2055.86953039 1865.77057648 2055.45610046 C1849.65481639 2050.59333054 1833.53744548 2045.73590894 1817.4199028 2040.87905121 C1814.35312985 2039.9549029 1811.28636757 2039.03071918 1808.21960545 2038.10653496 C1798.14643065 2035.07093364 1788.07321837 2032.03545672 1778 2029 C1765.6249744 2025.27091827 1753.24996484 2021.54178335 1740.875 2017.8125 C1740.11429451 2017.5832571 1739.35358902 2017.35401421 1738.56983185 2017.11782455 C1716.23792945 2010.38795654 1693.90689274 2003.65522423 1671.5766449 1996.91986847 C1649.76029615 1990.33953708 1627.94296596 1983.7624673 1606.125 1977.1875 C1605.36510017 1976.9584988 1604.60520035 1976.7294976 1603.82227325 1976.49355698 C1592.2148827 1972.99559227 1580.60744624 1969.4977799 1569 1966 C1556.6249744 1962.27091827 1544.24996484 1958.54178335 1531.875 1954.8125 C1531.11429451 1954.5832571 1530.35358902 1954.35401421 1529.56983185 1954.11782455 C1506.59976332 1947.19564091 1483.63063477 1940.27034687 1460.66229248 1933.34243774 C1439.27584251 1926.89170251 1417.88815107 1920.44509266 1396.5 1914 C1374.47219252 1907.36215365 1352.44493889 1900.72247848 1330.41889191 1894.07879257 C1307.32182297 1887.1120573 1284.223811 1880.14845719 1261.125 1873.1875 C1260.36510017 1872.9584988 1259.60520035 1872.7294976 1258.82227325 1872.49355698 C1247.2148827 1868.99559227 1235.60744624 1865.4977799 1224 1862 C1211.6249744 1858.27091827 1199.24996484 1854.54178335 1186.875 1850.8125 C1186.11429451 1850.5832571 1185.35358902 1850.35401421 1184.56983185 1850.11782455 C1162.23792945 1843.38795654 1139.90689274 1836.65522423 1117.5766449 1829.91986847 C1095.76029615 1823.33953708 1073.94296596 1816.7624673 1052.125 1810.1875 C1051.36510017 1809.9584988 1050.60520035 1809.7294976 1049.82227325 1809.49355698 C1038.2148827 1805.99559227 1026.60744624 1802.4977799 1015 1799 C1002.6249744 1795.27091827 990.24996484 1791.54178335 977.875 1787.8125 C977.11429451 1787.5832571 976.35358902 1787.35401421 975.56983185 1787.11782455 C953.23792945 1780.38795654 930.90689274 1773.65522423 908.5766449 1766.91986847 C886.76029615 1760.33953708 864.94296596 1753.7624673 843.125 1747.1875 C842.36510017 1746.9584988 841.60520035 1746.7294976 840.82227325 1746.49355698 C829.2148827 1742.99559227 817.60744624 1739.4977799 806 1736 C793.6249744 1732.27091827 781.24996484 1728.54178335 768.875 1724.8125 C768.11429451 1724.5832571 767.35358902 1724.35401421 766.56983185 1724.11782455 C744.23792945 1717.38795654 721.90689274 1710.65522423 699.5766449 1703.91986847 C677.76029615 1697.33953708 655.94296596 1690.7624673 634.125 1684.1875 C633.36510017 1683.9584988 632.60520035 1683.7294976 631.82227325 1683.49355698 C620.2148827 1679.99559227 608.60744624 1676.4977799 597 1673 C584.6249744 1669.27091827 572.24996484 1665.54178335 559.875 1661.8125 C559.11429451 1661.5832571 558.35358902 1661.35401421 557.56983185 1661.11782455 C534.59976332 1654.19564091 511.63063477 1647.27034687 488.66229248 1640.34243774 C467.27584251 1633.89170251 445.88815107 1627.44509266 424.5 1621 C402.47219252 1614.36215365 380.44493889 1607.72247848 358.41889191 1601.07879257 C335.32182297 1594.1120573 312.223811 1587.14845719 289.125 1580.1875 C288.36510017 1579.9584988 287.60520035 1579.7294976 286.82227325 1579.49355698 C275.2148827 1575.99559227 263.60744624 1572.4977799 252 1569 C239.6249744 1565.27091827 227.24996484 1561.54178335 214.875 1557.8125 C214.11429451 1557.5832571 213.35358902 1557.35401421 212.56983185 1557.11782455 C189.6064747 1550.19766343 166.64401117 1543.27454533 143.68243408 1536.34848022 C128.24206113 1531.69111003 112.80114433 1527.03555103 97.359375 1522.3828125 C95.75219692 1521.89854038 94.14501919 1521.4142671 92.5378418 1520.92999268 C85.67246659 1518.86134238 78.80708626 1516.79270928 71.94151306 1514.72471619 C47.95611798 1507.49922345 23.97825753 1500.24924065 0 1493 C0 1000.31 0 507.62 0 0 Z " fill="#E7C497" transform="translate(0,1925)"/>
<path d="M0 0 C0.01650135 58.15275048 0.03230972 116.30550114 0.04760742 174.45825195 C0.04790681 175.59614204 0.04820621 176.73403213 0.04851467 177.90640373 C0.07897318 293.7352861 0.10618467 409.56416869 0.12671701 541.55343204 C0.12702968 543.58109197 0.12734299 545.60875191 0.12765651 547.63641184 C0.13653883 605.08968394 0.14483939 662.5429561 0.15236078 719.99622839 C0.15263915 722.12258554 0.15291756 724.24894268 0.15319599 726.37529983 C0.15328794 727.07759827 0.15337989 727.7798967 0.15347463 728.50347691 C0.15693378 754.91118728 0.16052588 781.31889762 0.16419732 807.72660796 C0.16459611 810.59587764 0.16499338 813.46514732 0.16538927 816.33441701 C0.17473734 884.07715327 0.18647829 951.8198879 0.20599365 1019.56262207 C0.20619896 1020.27586777 0.20640426 1020.98911348 0.20661579 1021.72397269 C0.21344701 1045.44317831 0.22051018 1069.16238385 0.22760532 1092.88158939 C0.2340153 1114.31263982 0.24034201 1135.74369026 0.24639416 1157.17474079 C0.24669242 1158.2307403 0.24669242 1158.2307403 0.24699672 1159.30807312 C0.25942428 1203.38436574 0.26824627 1247.46065796 0.27341938 1291.53695202 C0.27349973 1292.21750248 0.27358008 1292.89805294 0.27366287 1293.59922614 C0.27718852 1323.4846801 0.27996162 1353.37013407 0.2818737 1383.25558818 C0.28268911 1395.94284989 0.28363716 1408.63011158 0.28463173 1421.31737328 C0.28473201 1422.63259757 0.28483229 1423.94782186 0.28493561 1425.30290144 C0.28822854 1467.7269148 0.30105393 1510.15091875 0.31884663 1552.57492832 C0.33671658 1595.28668544 0.34530446 1637.99843342 0.34087196 1680.71019439 C0.34026267 1686.60397388 0.33976054 1692.49775339 0.33932304 1698.3915329 C0.3392334 1699.54694622 0.33914376 1700.70235954 0.3390514 1701.89278538 C0.33790661 1720.23513067 0.34688763 1738.5774567 0.36002959 1756.91979673 C0.37272619 1774.9280287 0.37484865 1792.93623556 0.36549544 1810.94446989 C0.36032735 1821.52039712 0.36349881 1832.096245 0.37865101 1842.67216308 C0.38788189 1849.67939741 0.38640727 1856.68657447 0.37590322 1863.69380693 C0.37024225 1867.67674948 0.36942315 1871.65953668 0.38170573 1875.64246777 C0.39274319 1879.24936103 0.39021707 1882.85596917 0.37642879 1886.46285065 C0.37270912 1888.37958304 0.38382271 1890.29632633 0.39540346 1892.21302734 C0.38481543 1893.90198465 0.38481543 1893.90198465 0.37401349 1895.62506231 C0.37430152 1897.08489239 0.37430152 1897.08489239 0.37459537 1898.57421399 C-0.06576276 1901.42586322 -0.73725811 1902.27340428 -3 1904 C-5.06521606 1904.97872925 -5.06521606 1904.97872925 -7.48486328 1905.84326172 C-8.40407059 1906.17650452 -9.32327789 1906.50974731 -10.27033997 1906.85308838 C-11.2768309 1907.20836609 -12.28332184 1907.5636438 -13.3203125 1907.9296875 C-14.38122604 1908.31203552 -15.44213959 1908.69438354 -16.53520203 1909.08831787 C-18.84544067 1909.91991675 -21.15706435 1910.74767547 -23.46987915 1911.57208252 C-29.09315786 1913.5765766 -34.70842243 1915.60329768 -40.32461739 1917.62752914 C-42.2865986 1918.33427299 -44.24896712 1919.0399325 -46.21141052 1919.74539185 C-58.58648206 1924.19649607 -70.92450007 1928.74629156 -83.25839233 1933.31018066 C-102.24588092 1940.33448029 -121.25719695 1947.28678421 -140.3125 1954.125 C-157.07911665 1960.1424718 -173.83146071 1966.19672734 -190.5625 1972.3125 C-191.63027679 1972.70277374 -192.69805359 1973.09304749 -193.79818726 1973.49514771 C-206.26977954 1978.05544267 -218.73396517 1982.63556613 -231.19140625 1987.234375 C-232.37877884 1987.67268646 -233.56615143 1988.11099792 -234.789505 1988.56259155 C-236.57483894 1989.22166 -236.57483894 1989.22166 -238.39624023 1989.89404297 C-240.80582216 1990.78354128 -243.21540875 1991.67302695 -245.625 1992.5625 C-246.81747345 1993.00273499 -248.0099469 1993.44296997 -249.23855591 1993.89654541 C-266.99584721 2000.44947183 -284.78443277 2006.90953393 -302.60089111 2013.29968262 C-318.76360022 2019.09752625 -334.89243465 2024.98209355 -351.00430298 2030.91964722 C-367.58270101 2037.02767228 -384.18623429 2043.06409061 -400.80233383 2049.06874466 C-417.11270655 2054.96293516 -433.42089372 2060.86090867 -449.6875 2066.875 C-466.25566525 2072.99992598 -482.84424079 2079.06846178 -499.4375 2085.125 C-500.11421879 2085.37203171 -500.79093758 2085.61906342 -501.48816299 2085.87358093 C-516.41404219 2091.32215273 -531.3421462 2096.76451313 -546.27734375 2102.1875 C-547.41187988 2102.59947632 -548.54641602 2103.01145264 -549.71533203 2103.43591309 C-559.63012012 2107.03609448 -559.63012012 2107.03609448 -563.25006104 2108.3503418 C-581.99393196 2115.15742104 -600.70711167 2122.04576866 -619.41351318 2128.95504761 C-637.11239001 2135.48974176 -654.84274332 2141.93054655 -672.60171509 2148.29995728 C-688.76414759 2154.09771383 -704.89270657 2159.98219375 -721.00430298 2165.91964722 C-737.58270101 2172.02767228 -754.18623429 2178.06409061 -770.80233383 2184.06874466 C-787.11270655 2189.96293516 -803.42089372 2195.86090867 -819.6875 2201.875 C-836.25566525 2207.99992598 -852.84424079 2214.06846178 -869.4375 2220.125 C-870.11421879 2220.37203171 -870.79093758 2220.61906342 -871.48816299 2220.87358093 C-886.41404219 2226.32215273 -901.3421462 2231.76451313 -916.27734375 2237.1875 C-917.41187988 2237.59947632 -918.54641602 2238.01145264 -919.71533203 2238.43591309 C-929.63012012 2242.03609448 -929.63012012 2242.03609448 -933.25006104 2243.3503418 C-951.99393196 2250.15742104 -970.70711167 2257.04576866 -989.41351318 2263.95504761 C-1007.11239001 2270.48974176 -1024.84274332 2276.93054655 -1042.60171509 2283.29995728 C-1058.76414759 2289.09771383 -1074.89270657 2294.98219375 -1091.00430298 2300.91964722 C-1107.58270101 2307.02767228 -1124.18623429 2313.06409061 -1140.80233383 2319.06874466 C-1157.11270655 2324.96293516 -1173.42089372 2330.86090867 -1189.6875 2336.875 C-1206.25566525 2342.99992598 -1222.84424079 2349.06846178 -1239.4375 2355.125 C-1240.11421879 2355.37203171 -1240.79093758 2355.61906342 -1241.48816299 2355.87358093 C-1256.41404219 2361.32215273 -1271.3421462 2366.76451313 -1286.27734375 2372.1875 C-1287.41187988 2372.59947632 -1288.54641602 2373.01145264 -1289.71533203 2373.43591309 C-1299.63012012 2377.03609448 -1299.63012012 2377.03609448 -1303.25006104 2378.3503418 C-1321.99393196 2385.15742104 -1340.70711167 2392.04576866 -1359.41351318 2398.95504761 C-1377.11239001 2405.48974176 -1394.84274332 2411.93054655 -1412.60171509 2418.29995728 C-1428.76414759 2424.09771383 -1444.89270657 2429.98219375 -1461.00430298 2435.91964722 C-1478.20964781 2442.25866002 -1495.4429973 2448.51843832 -1512.6875 2454.75 C-1529.27459723 2460.74441333 -1545.85254198 2466.760092 -1562.39422607 2472.87875366 C-1576.68029026 2478.16205678 -1590.99463304 2483.3660733 -1605.3125 2488.5625 C-1626.93696908 2496.4110125 -1648.5339221 2504.33169332 -1670.10766602 2512.31860352 C-1681.66677733 2516.59323353 -1693.24053303 2520.81600014 -1704.859375 2524.92578125 C-1707.05733584 2525.70666277 -1709.25525349 2526.48766591 -1711.453125 2527.26879883 C-1715.54677551 2528.72316951 -1719.64627157 2530.15907033 -1723.75 2531.5847168 C-1725.57837091 2532.23286793 -1727.40651009 2532.88167325 -1729.234375 2533.53125 C-1730.05548767 2533.81055862 -1730.87660034 2534.08986725 -1731.72259521 2534.37763977 C-1736.63893581 2536.14642511 -1739.59295539 2538.01517244 -1743 2542 C-1750.35829864 2539.90137571 -1757.52042623 2537.42027002 -1764.6875 2534.74609375 C-1765.80217651 2534.3333017 -1766.91685303 2533.92050964 -1768.06530762 2533.49520874 C-1770.46171212 2532.6076875 -1772.85765423 2531.71891694 -1775.25317383 2530.82901001 C-1781.67639737 2528.44352975 -1788.1035519 2526.06870523 -1794.53125 2523.6953125 C-1795.18428604 2523.45410234 -1795.83732208 2523.21289219 -1796.51014709 2522.96437263 C-1809.48093095 2518.17491367 -1822.4840166 2513.47761715 -1835.5 2508.8125 C-1852.69715491 2502.64590521 -1869.86195948 2496.39765767 -1887.00430298 2490.08035278 C-1903.58270101 2483.97232772 -1920.18623429 2477.93590939 -1936.80233383 2471.93125534 C-1953.11270655 2466.03706484 -1969.42089372 2460.13909133 -1985.6875 2454.125 C-2002.25566525 2448.00007402 -2018.84424079 2441.93153822 -2035.4375 2435.875 C-2036.11421879 2435.62796829 -2036.79093758 2435.38093658 -2037.48816299 2435.12641907 C-2052.41404219 2429.67784727 -2067.3421462 2424.23548687 -2082.27734375 2418.8125 C-2083.41187988 2418.40052368 -2084.54641602 2417.98854736 -2085.71533203 2417.56408691 C-2092.48265701 2415.1067637 -2092.48265701 2415.1067637 -2099.25006104 2412.6496582 C-2117.99393196 2405.84257896 -2136.70711167 2398.95423134 -2155.41351318 2392.04495239 C-2173.11239001 2385.51025824 -2190.84274332 2379.06945345 -2208.60171509 2372.70004272 C-2223.75947557 2367.26268017 -2238.88982427 2361.75570184 -2254 2356.1875 C-2271.97770254 2349.56267076 -2289.9807883 2343.01106651 -2308 2336.5 C-2325.74588587 2330.08663996 -2343.47981371 2323.64312846 -2361.1875 2317.125 C-2379.82382423 2310.26551635 -2398.47030097 2303.43432248 -2417.125 2296.625 C-2417.79230259 2296.38139236 -2418.45960518 2296.13778473 -2419.14712906 2295.88679504 C-2433.83903646 2290.52332081 -2448.53319956 2285.16615379 -2463.234375 2279.828125 C-2464.37162521 2279.41516174 -2465.50887543 2279.00219849 -2466.68058777 2278.57672119 C-2473.46679459 2276.11252902 -2473.46679459 2276.11252902 -2480.25308228 2273.64855957 C-2498.99594617 2266.84184692 -2517.70811697 2259.95386003 -2536.41351318 2253.04495239 C-2554.11239001 2246.51025824 -2571.84274332 2240.06945345 -2589.60171509 2233.70004272 C-2605.76414759 2227.90228617 -2621.89270657 2222.01780625 -2638.00430298 2216.08035278 C-2654.58270101 2209.97232772 -2671.18623429 2203.93590939 -2687.80233383 2197.93125534 C-2704.11270655 2192.03706484 -2720.42089372 2186.13909133 -2736.6875 2180.125 C-2753.25566525 2174.00007402 -2769.84424079 2167.93153822 -2786.4375 2161.875 C-2787.11421879 2161.62796829 -2787.79093758 2161.38093658 -2788.48816299 2161.12641907 C-2803.41404219 2155.67784727 -2818.3421462 2150.23548687 -2833.27734375 2144.8125 C-2834.97914795 2144.19453552 -2834.97914795 2144.19453552 -2836.71533203 2143.56408691 C-2843.48265701 2141.1067637 -2843.48265701 2141.1067637 -2850.25006104 2138.6496582 C-2868.99393196 2131.84257896 -2887.70711167 2124.95423134 -2906.41351318 2118.04495239 C-2924.11239001 2111.51025824 -2941.84274332 2105.06945345 -2959.60171509 2098.70004272 C-2974.75947557 2093.26268017 -2989.88982427 2087.75570184 -3005 2082.1875 C-3022.97770254 2075.56267076 -3040.9807883 2069.01106651 -3059 2062.5 C-3076.74588587 2056.08663996 -3094.47981371 2049.64312846 -3112.1875 2043.125 C-3130.82382423 2036.26551635 -3149.47030097 2029.43432248 -3168.125 2022.625 C-3168.79230259 2022.38139236 -3169.45960518 2022.13778473 -3170.14712906 2021.88679504 C-3184.83903646 2016.52332081 -3199.53319956 2011.16615379 -3214.234375 2005.828125 C-3215.37162521 2005.41516174 -3216.50887543 2005.00219849 -3217.68058777 2004.57672119 C-3224.46679459 2002.11252902 -3224.46679459 2002.11252902 -3231.25308228 1999.64855957 C-3249.99594617 1992.84184692 -3268.70811697 1985.95386003 -3287.41351318 1979.04495239 C-3305.11239001 1972.51025824 -3322.84274332 1966.06945345 -3340.60171509 1959.70004272 C-3356.75844336 1953.90433238 -3372.88173362 1948.02302132 -3388.98718262 1942.08639526 C-3401.3901063 1937.51545426 -3413.80335898 1932.9744205 -3426.234375 1928.48046875 C-3427.20367195 1928.12998883 -3427.20367195 1928.12998883 -3428.19255066 1927.77242851 C-3435.13474895 1925.26251904 -3442.07834257 1922.75652318 -3449.0234375 1920.25463867 C-3459.74696204 1916.38792062 -3470.46372099 1912.50172113 -3481.140625 1908.5078125 C-3482.02925232 1908.18094452 -3482.91787964 1907.85407654 -3483.83343506 1907.51730347 C-3484.63638 1907.21398102 -3485.43932495 1906.91065857 -3486.26660156 1906.59814453 C-3487.31826508 1906.20539841 -3487.31826508 1906.20539841 -3488.39117432 1905.80471802 C-3490 1905 -3490 1905 -3491 1903 C-3491.09486007 1901.25198984 -3491.12478629 1899.50031564 -3491.12467116 1897.74973347 C-3491.12702406 1896.62611483 -3491.12937696 1895.50249619 -3491.13180115 1894.3448285 C-3491.12929228 1893.09660577 -3491.1267834 1891.84838304 -3491.1241985 1890.56233537 C-3491.1250633 1889.22631229 -3491.12636688 1887.89028943 -3491.12807148 1886.55426715 C-3491.13150795 1882.84772688 -3491.12864362 1879.14121316 -3491.12483745 1875.43467422 C-3491.12179042 1871.40052642 -3491.12452755 1867.36638201 -3491.12654433 1863.33223414 C-3491.12928874 1856.22285712 -3491.12827678 1849.11348808 -3491.12488318 1842.00411145 C-3491.11982266 1831.36111931 -3491.12050684 1820.71813292 -3491.12234976 1810.07514001 C-3491.12532174 1791.94040242 -3491.12353551 1773.80566805 -3491.11920547 1755.67093086 C-3491.11483407 1737.28216706 -3491.11263211 1718.89340492 -3491.11310768 1700.50464058 C-3491.11313637 1699.34508566 -3491.11316507 1698.18553074 -3491.11319463 1696.99083779 C-3491.11335099 1691.07872171 -3491.11354294 1685.16660563 -3491.11374746 1679.25448955 C-3491.11515661 1636.41335591 -3491.11171843 1593.57222374 -3491.10573006 1550.73109055 C-3491.09981195 1508.29147713 -3491.09595584 1465.85186435 -3491.09487724 1423.41225052 C-3491.09484283 1422.09529344 -3491.09480842 1420.77833637 -3491.09477296 1419.4214715 C-3491.09445977 1407.39347995 -3491.0941715 1395.36548841 -3491.09391499 1383.33749686 C-3491.0932761 1353.43436184 -3491.09231661 1323.53122682 -3491.09113979 1293.62809181 C-3491.09111316 1292.94729109 -3491.09108653 1292.26649036 -3491.09105909 1291.56505931 C-3491.08933117 1247.46233014 -3491.08628326 1203.35960118 -3491.08213139 1159.25687218 C-3491.0820651 1158.55260643 -3491.08199881 1157.84834068 -3491.08193051 1157.12273355 C-3491.07990978 1135.68383009 -3491.07779141 1114.24492665 -3491.07565394 1092.8060232 C-3491.07328899 1069.08111101 -3491.0709407 1045.35619882 -3491.06866455 1021.63128662 C-3491.06859605 1020.9178803 -3491.06852755 1020.20447398 -3491.06845698 1019.46944929 C-3491.06195785 951.72533839 -3491.05814632 883.98122742 -3491.05503077 816.23711628 C-3491.05489862 813.36808655 -3491.0547657 810.49905682 -3491.05463275 807.63002709 C-3491.05340935 781.22880645 -3491.05221752 754.8275858 -3491.05106533 728.42636516 C-3491.05103469 727.72433935 -3491.05100405 727.02231354 -3491.05097248 726.29901421 C-3491.05087972 724.17346897 -3491.05078697 722.04792372 -3491.05069422 719.92237848 C-3491.0481883 662.49811304 -3491.04540709 605.07384762 -3491.04244758 547.6495822 C-3491.04234323 545.62343212 -3491.04223909 543.59728205 -3491.04213501 541.57113197 C-3491.03635742 429.12494024 -3491.0280395 316.67874875 -3491.01586914 176.47412109 C-3491.01576921 175.33433668 -3491.01566927 174.19455227 -3491.01556631 173.02022893 C-3491.01056562 116.01348594 -3491.00539154 59.00674296 -3491 2 C-3487.76628597 3.26252408 -3484.91164534 4.55803841 -3482.015625 6.4765625 C-3481.25830078 6.97414063 -3480.50097656 7.47171875 -3479.72070312 7.984375 C-3478.90537109 8.52578125 -3478.09003906 9.0671875 -3477.25 9.625 C-3475.45372462 10.80560032 -3473.6568199 11.98524351 -3471.859375 13.1640625 C-3470.90869141 13.78829102 -3469.95800781 14.41251953 -3468.97851562 15.05566406 C-3463.84307 18.40801562 -3458.67024834 21.70168335 -3453.5 25 C-3445.17415423 30.317676 -3436.87303095 35.67059283 -3428.59765625 41.06640625 C-3421.92152034 45.41390595 -3415.2139647 49.71120073 -3408.5 54 C-3400.98026986 58.80351247 -3393.47451157 63.62640874 -3386 68.5 C-3377.39260696 74.1119536 -3368.74219273 79.65507159 -3360.08398438 85.18823242 C-3350.71152125 91.17933459 -3341.37027346 97.21739725 -3332.0390625 103.27246094 C-3322.94296201 109.17324154 -3313.82365641 115.03639914 -3304.6875 120.875 C-3296.30239872 126.23389459 -3287.94094454 131.62657683 -3279.60498047 137.06152344 C-3271.79313662 142.14837828 -3263.93898575 147.16837333 -3256.08398438 152.18823242 C-3246.71152125 158.17933459 -3237.37027346 164.21739725 -3228.0390625 170.27246094 C-3218.94296201 176.17324154 -3209.82365641 182.03639914 -3200.6875 187.875 C-3192.30239872 193.23389459 -3183.94094454 198.62657683 -3175.60498047 204.06152344 C-3167.79313662 209.14837828 -3159.93898575 214.16837333 -3152.08398438 219.18823242 C-3142.71152125 225.17933459 -3133.37027346 231.21739725 -3124.0390625 237.27246094 C-3114.94296201 243.17324154 -3105.82365641 249.03639914 -3096.6875 254.875 C-3088.30239872 260.23389459 -3079.94094454 265.62657683 -3071.60498047 271.06152344 C-3063.79313662 276.14837828 -3055.93898575 281.16837333 -3048.08398438 286.18823242 C-3038.71152125 292.17933459 -3029.37027346 298.21739725 -3020.0390625 304.27246094 C-3010.94296201 310.17324154 -3001.82365641 316.03639914 -2992.6875 321.875 C-2984.30239872 327.23389459 -2975.94094454 332.62657683 -2967.60498047 338.06152344 C-2959.79313662 343.14837828 -2951.93898575 348.16837333 -2944.08398438 353.18823242 C-2934.71152125 359.17933459 -2925.37027346 365.21739725 -2916.0390625 371.27246094 C-2906.87998609 377.21409499 -2897.69813225 383.11897862 -2888.5 389 C-2877.98880586 395.72055542 -2867.50469875 402.48126371 -2857.0390625 409.27246094 C-2847.94296201 415.17324154 -2838.82365641 421.03639914 -2829.6875 426.875 C-2821.30239872 432.23389459 -2812.94094454 437.62657683 -2804.60498047 443.06152344 C-2796.79313662 448.14837828 -2788.93898575 453.16837333 -2781.08398438 458.18823242 C-2771.71152125 464.17933459 -2762.37027346 470.21739725 -2753.0390625 476.27246094 C-2751.02643567 477.57808299 -2749.01335688 478.88300403 -2747 480.1875 C-2746.31800537 480.6294873 -2745.63601074 481.07147461 -2744.93334961 481.52685547 C-2740.63320117 484.30921853 -2736.32214423 487.07391434 -2732.00390625 489.828125 C-2722.12372559 496.13006175 -2712.25119868 502.43703286 -2702.5 508.9375 C-2701.74662354 509.43950928 -2700.99324707 509.94151855 -2700.21704102 510.45874023 C-2695.13612524 513.86387476 -2695.13612524 513.86387476 -2694 515 C-2693.90136592 517.28813372 -2693.87552934 519.57939467 -2693.8758015 521.86965328 C-2693.87452342 522.60146891 -2693.87324533 523.33328454 -2693.87192852 524.0872764 C-2693.86883004 526.57571274 -2693.87295035 529.06408735 -2693.87695217 531.55252171 C-2693.87621347 533.34779765 -2693.8750359 535.14307346 -2693.87345567 536.93834886 C-2693.87036537 541.91834383 -2693.87357927 546.89831862 -2693.87773381 551.8783121 C-2693.88115002 557.27844263 -2693.87880066 562.67857098 -2693.87715632 568.07870191 C-2693.87507627 577.55851656 -2693.87673705 587.03832496 -2693.88079453 596.51813889 C-2693.88681122 610.61444079 -2693.88713204 624.71073873 -2693.88625254 638.80704169 C-2693.88493629 662.51530932 -2693.88828166 686.22357409 -2693.89426994 709.9318409 C-2693.90018799 733.41801021 -2693.90404415 756.90417838 -2693.90512276 780.39034843 C-2693.90515717 781.11914687 -2693.90519158 781.84794531 -2693.90522704 782.59882855 C-2693.90554023 789.25506482 -2693.90582792 795.9113011 -2693.90608501 802.56753738 C-2693.90672449 819.11582032 -2693.90768386 835.66410322 -2693.90886021 852.21238613 C-2693.90891352 852.96604336 -2693.90896684 853.71970059 -2693.90902177 854.49619592 C-2693.91164468 891.17690774 -2693.91795281 927.8576188 -2693.92456055 964.53833008 C-2693.92685216 977.27085367 -2693.9291275 990.00337727 -2693.93133545 1002.73590088 C-2693.93154087 1003.92037403 -2693.93154087 1003.92037403 -2693.93175045 1005.12877594 C-2693.93809195 1041.82248125 -2693.94181929 1078.51618669 -2693.94487024 1115.20989241 C-2693.94506831 1117.59143214 -2693.9452675 1119.97297187 -2693.94546692 1122.3545116 C-2693.94678668 1138.1368087 -2693.94806133 1153.9191058 -2693.94930578 1169.7014029 C-2693.95178243 1201.10552792 -2693.95452412 1232.50965291 -2693.95744783 1263.91377789 C-2693.95758707 1265.40939844 -2693.95772612 1266.90501899 -2693.95786499 1268.40063954 C-2693.96557264 1351.39192395 -2693.97810738 1434.38320755 -2694 1567 C-2693.22725361 1567.1482082 -2692.45450722 1567.2964164 -2691.65834427 1567.44911575 C-2688.89896008 1568.02093833 -2686.387039 1568.84284261 -2683.73730469 1569.79980469 C-2682.69815414 1570.17322998 -2681.6590036 1570.54665527 -2680.58836365 1570.93139648 C-2679.46092239 1571.34075439 -2678.33348114 1571.7501123 -2677.171875 1572.171875 C-2675.98034317 1572.60153564 -2674.78881134 1573.03119629 -2673.56117249 1573.47387695 C-2670.30343697 1574.64899667 -2667.04744241 1575.82887154 -2663.7918129 1577.0098114 C-2661.7413584 1577.75313271 -2659.69039671 1578.49503655 -2657.63925171 1579.2364502 C-2636.81569966 1586.76356903 -2616.02846146 1594.38636429 -2595.25964355 1602.06326294 C-2577.66992712 1608.56451383 -2560.04839459 1614.96978655 -2542.39663696 1621.30050659 C-2526.23475767 1627.09808899 -2510.10674959 1632.98239417 -2493.99569702 1638.91964722 C-2477.41729899 1645.02767228 -2460.81376571 1651.06409061 -2444.19766617 1657.06874466 C-2427.88729345 1662.96293516 -2411.57910628 1668.86090867 -2395.3125 1674.875 C-2378.74433475 1680.99992598 -2362.15575921 1687.06846178 -2345.5625 1693.125 C-2344.88578121 1693.37203171 -2344.20906242 1693.61906342 -2343.51183701 1693.87358093 C-2328.58595781 1699.32215273 -2313.6578538 1704.76451313 -2298.72265625 1710.1875 C-2297.58812012 1710.59947632 -2296.45358398 1711.01145264 -2295.28466797 1711.43591309 C-2288.51734299 1713.8932363 -2288.51734299 1713.8932363 -2281.74993896 1716.3503418 C-2263.00606804 1723.15742104 -2244.29288833 1730.04576866 -2225.58648682 1736.95504761 C-2207.88760999 1743.48974176 -2190.15725668 1749.93054655 -2172.39828491 1756.29995728 C-2156.23585241 1762.09771383 -2140.10729343 1767.98219375 -2123.99569702 1773.91964722 C-2107.41729899 1780.02767228 -2090.81376571 1786.06409061 -2074.19766617 1792.06874466 C-2057.88729345 1797.96293516 -2041.57910628 1803.86090867 -2025.3125 1809.875 C-2008.74433475 1815.99992598 -1992.15575921 1822.06846178 -1975.5625 1828.125 C-1974.88578121 1828.37203171 -1974.20906242 1828.61906342 -1973.51183701 1828.87358093 C-1958.58595781 1834.32215273 -1943.6578538 1839.76451313 -1928.72265625 1845.1875 C-1927.58812012 1845.59947632 -1926.45358398 1846.01145264 -1925.28466797 1846.43591309 C-1918.51734299 1848.8932363 -1918.51734299 1848.8932363 -1911.74993896 1851.3503418 C-1893.01245747 1858.15510064 -1874.30561617 1865.04099226 -1855.60562134 1871.94799805 C-1836.46471165 1879.0152091 -1817.29213091 1885.98988317 -1798.07714844 1892.85327148 C-1789.20109336 1896.02645402 -1780.33976955 1899.22033874 -1771.5390625 1902.59765625 C-1770.13247245 1903.13282549 -1768.72581821 1903.66782604 -1767.3190918 1904.20263672 C-1764.83968456 1905.14591973 -1762.37396335 1906.11156049 -1759.90942383 1907.09423828 C-1758.31263794 1907.70307861 -1758.31263794 1907.70307861 -1756.68359375 1908.32421875 C-1755.79212646 1908.67572998 -1754.90065918 1909.02724121 -1753.98217773 1909.3894043 C-1745.4017177 1911.14623856 -1737.49058039 1907.65966483 -1729.5546875 1904.6796875 C-1727.69198419 1903.99468799 -1725.82928088 1903.30968849 -1723.96657753 1902.6246891 C-1721.9774816 1901.89094693 -1719.99031886 1901.15218455 -1718.00366211 1900.41186523 C-1713.80106531 1898.84586837 -1709.59334861 1897.29396523 -1705.38476562 1895.74414062 C-1700.24500994 1893.85044153 -1695.10644337 1891.95358315 -1689.96940231 1890.0525322 C-1681.0007723 1886.73391929 -1672.02330905 1883.44014663 -1663.0390625 1880.1640625 C-1662.39566296 1879.92943676 -1661.75226341 1879.69481102 -1661.08936691 1879.45307541 C-1657.85409222 1878.27344262 -1654.61864469 1877.09428476 -1651.38311768 1875.91534424 C-1645.49513683 1873.76965713 -1639.60871286 1871.61970512 -1633.7221489 1869.47013474 C-1630.43982762 1868.27158752 -1627.15740896 1867.07330706 -1623.875 1865.875 C-1622.56249953 1865.39583462 -1621.24999953 1864.91666795 -1619.9375 1864.4375 C-1617.3125 1863.47916667 -1614.6875 1862.52083333 -1612.0625 1861.5625 C-1611.41281093 1861.32531187 -1610.76312185 1861.08812374 -1610.09374523 1860.84374809 C-1608.78126127 1860.36458739 -1607.46877716 1859.88542708 -1606.15629292 1859.40626717 C-1602.87479637 1858.20826243 -1599.5933023 1857.01025089 -1596.31181335 1855.81222534 C-1590.40851008 1853.65701968 -1584.50518957 1851.50186131 -1578.60177517 1849.34696007 C-1575.32434814 1848.15061149 -1572.04693582 1846.95422262 -1568.76953125 1845.7578125 C-1568.12045115 1845.52086796 -1567.47137104 1845.28392342 -1566.80262184 1845.03979874 C-1557.55660159 1841.66447882 -1548.31141676 1838.28687878 -1539.06672478 1834.90792274 C-1533.10716618 1832.72978097 -1527.14737676 1830.55227104 -1521.1875 1828.375 C-1520.53721455 1828.13742603 -1519.88692909 1827.89985207 -1519.21693802 1827.65507889 C-1499.30328547 1820.38024651 -1479.37534414 1813.14574962 -1459.4375 1805.9375 C-1443.32239951 1800.11122844 -1427.2159872 1794.26453777 -1411.14300537 1788.32302856 C-1395.29775164 1782.46617746 -1379.43147996 1776.66717636 -1363.5625 1770.875 C-1362.88578121 1770.62796829 -1362.20906242 1770.38093658 -1361.51183701 1770.12641907 C-1346.58595781 1764.67784727 -1331.6578538 1759.23548687 -1316.72265625 1753.8125 C-1315.58812012 1753.40052368 -1314.45358398 1752.98854736 -1313.28466797 1752.56408691 C-1303.36987989 1748.96390552 -1303.36987989 1748.96390552 -1299.74993896 1747.6496582 C-1281.00606804 1740.84257896 -1262.29288833 1733.95423134 -1243.58648682 1727.04495239 C-1225.88760999 1720.51025824 -1208.15725668 1714.06945345 -1190.39828491 1707.70004272 C-1174.23585241 1701.90228617 -1158.10729343 1696.01780625 -1141.99569702 1690.08035278 C-1125.41729899 1683.97232772 -1108.81376571 1677.93590939 -1092.19766617 1671.93125534 C-1075.88729345 1666.03706484 -1059.57910628 1660.13909133 -1043.3125 1654.125 C-1026.74433475 1648.00007402 -1010.15575921 1641.93153822 -993.5625 1635.875 C-992.88578121 1635.62796829 -992.20906242 1635.38093658 -991.51183701 1635.12641907 C-976.58595781 1629.67784727 -961.6578538 1624.23548687 -946.72265625 1618.8125 C-945.58812012 1618.40052368 -944.45358398 1617.98854736 -943.28466797 1617.56408691 C-933.36987989 1613.96390552 -933.36987989 1613.96390552 -929.74993896 1612.6496582 C-911.02184531 1605.84830868 -892.32386037 1598.96721359 -873.63381958 1592.06207275 C-853.81174321 1584.74110117 -833.94807458 1577.54086244 -814.0534668 1570.41943359 C-813.0492569 1570.05959381 -812.045047 1569.69975403 -811.01040649 1569.32901001 C-809.13898977 1568.65868048 -807.26716582 1567.98948638 -805.39486694 1567.32162476 C-804.57563751 1567.02825226 -803.75640808 1566.73487976 -802.91235352 1566.43261719 C-801.84453392 1566.05130646 -801.84453392 1566.05130646 -800.75514221 1565.66229248 C-798.93096897 1565.00825214 -798.93096897 1565.00825214 -797 1564 C-797.00267532 1562.63267296 -797.00267532 1562.63267296 -797.00540468 1561.23772315 C-797.17438683 1474.60394947 -797.34160409 1387.97007508 -797.43382263 1263.58247375 C-797.43476931 1262.08598359 -797.43571601 1260.58949342 -797.43666273 1259.09300325 C-797.4564587 1227.68138916 -797.47275553 1196.26977403 -797.48501012 1164.8581561 C-797.49116972 1149.07909709 -797.49800173 1133.30003842 -797.50546949 1117.52097997 C-797.50659208 1115.14076623 -797.50769546 1112.76055249 -797.50879804 1110.38033874 C-797.52594583 1073.72769213 -797.55751559 1037.07512764 -797.63085938 1000.42254639 C-797.63243609 999.63446313 -797.63401281 998.84637988 -797.63563731 998.03441531 C-797.66114637 985.32815166 -797.68786563 972.62189055 -797.7147455 959.91562973 C-797.79214795 923.31835042 -797.86060388 886.72115333 -797.86983395 850.12378407 C-797.87002811 849.37121075 -797.87022227 848.61863743 -797.87042232 847.84325887 C-797.8745239 831.32255791 -797.87402303 814.80186042 -797.86916419 798.28115977 C-797.86729026 791.63381356 -797.86607889 784.98646726 -797.86509514 778.33912086 C-797.86497149 777.61159722 -797.86484784 776.88407357 -797.86472044 776.13450375 C-797.86106582 752.69233463 -797.91134778 729.25066176 -797.98991497 705.80863547 C-798.07100491 681.53819467 -798.09213571 657.26843506 -798.04335362 632.99789479 C-798.01710172 619.00001203 -798.03847753 605.00406739 -798.12739631 591.00643245 C-798.18210914 581.66182332 -798.17539995 572.31857485 -798.11832128 562.97398292 C-798.0875403 557.64470816 -798.08386914 552.31916323 -798.15496892 546.99019083 C-798.21914828 542.14052626 -798.20501619 537.29761644 -798.12851899 532.4481881 C-798.11473208 530.70578565 -798.1294249 528.96286476 -798.17613742 527.22103402 C-798.49178197 514.6237173 -798.49178197 514.6237173 -794.33685754 510.24879716 C-790.23986959 506.94291328 -785.775193 504.44714724 -781.0870751 502.08279937 C-778.07352011 500.51933122 -775.29883372 498.68610289 -772.46875 496.8125 C-770.47937168 495.54134576 -768.48978887 494.27051149 -766.5 493 C-756.64494643 486.69982632 -746.81195905 480.36702323 -737 474 C-727.25100649 467.67383539 -717.48027967 461.38322603 -707.6875 455.125 C-700.10557381 450.27941235 -692.53752785 445.41437596 -685 440.5 C-676.39258913 434.8880734 -667.74219304 429.34492861 -659.08398438 423.81176758 C-650.36807652 418.24035122 -641.67755418 412.63090294 -633 407 C-623.25100649 400.67383539 -613.48027967 394.38322603 -603.6875 388.125 C-596.10557381 383.27941235 -588.53752785 378.41437596 -581 373.5 C-572.39258913 367.8880734 -563.74219304 362.34492861 -555.08398438 356.81176758 C-546.36807652 351.24035122 -537.67755418 345.63090294 -529 340 C-519.25100649 333.67383539 -509.48027967 327.38322603 -499.6875 321.125 C-492.10557381 316.27941235 -484.53752785 311.41437596 -477 306.5 C-468.39258913 300.8880734 -459.74219304 295.34492861 -451.08398438 289.81176758 C-442.36807652 284.24035122 -433.67755418 278.63090294 -425 273 C-415.25100649 266.67383539 -405.48027967 260.38322603 -395.6875 254.125 C-388.10557381 249.27941235 -380.53752785 244.41437596 -373 239.5 C-364.39258913 233.8880734 -355.74219304 228.34492861 -347.08398438 222.81176758 C-338.36807652 217.24035122 -329.67755418 211.63090294 -321 206 C-311.25100649 199.67383539 -301.48027967 193.38322603 -291.6875 187.125 C-284.10557381 182.27941235 -276.53752785 177.41437596 -269 172.5 C-260.39258913 166.8880734 -251.74219304 161.34492861 -243.08398438 155.81176758 C-234.36807652 150.24035122 -225.67755418 144.63090294 -217 139 C-207.25100649 132.67383539 -197.48027967 126.38322603 -187.6875 120.125 C-180.10557381 115.27941235 -172.53752785 110.41437596 -165 105.5 C-156.39258913 99.8880734 -147.74219304 94.34492861 -139.08398438 88.81176758 C-130.36807652 83.24035122 -121.67755418 77.63090294 -113 72 C-103.25100649 65.67383539 -93.48027967 59.38322603 -83.6875 53.125 C-76.10557381 48.27941235 -68.53752785 43.41437596 -61 38.5 C-52.39922772 32.89240168 -43.75596155 27.35280162 -35.10375977 21.82495117 C-28.21160474 17.4202468 -21.33256887 12.99627472 -14.47583008 8.53662109 C-11.19479201 6.40569549 -7.90357033 4.29137437 -4.59765625 2.19921875 C-3.93386963 1.77858154 -3.27008301 1.35794434 -2.58618164 0.92456055 C-1 -0 -1 -0 0 0 Z " fill="#E7C497" transform="translate(3884,0)"/>
<path d="M0 0 C0 492.69 0 985.38 0 1493 C-61.23225801 1512.27682196 -61.23225801 1512.27682196 -80.86929321 1518.28326416 C-87.57338076 1520.33446048 -94.27496066 1522.39382453 -100.9765625 1524.453125 C-101.68936434 1524.67211079 -102.40216618 1524.89109657 -103.13656807 1525.11671829 C-122.54102714 1531.07917703 -141.92628552 1537.10354696 -161.3125 1543.125 C-168.76297619 1545.43894585 -176.21350483 1547.75272277 -183.6640625 1550.06640625 C-184.59210693 1550.35461054 -185.52015137 1550.64281483 -186.47631836 1550.93975258 C-207.04286248 1557.32644376 -227.6145263 1563.69655502 -248.1875 1570.0625 C-249.93038964 1570.60182622 -251.67327905 1571.14115321 -253.41616821 1571.68048096 C-260.38649714 1573.83738048 -267.35686148 1575.99416553 -274.32728577 1578.15075684 C-286.54787381 1581.93170821 -298.76818289 1585.71356 -310.98828125 1589.49609375 C-312.28818025 1589.89845592 -312.28818025 1589.89845592 -313.61433983 1590.30894661 C-317.99188999 1591.66394962 -322.36943543 1593.01896785 -326.74697876 1594.37399292 C-334.62302205 1596.81193595 -342.4991071 1599.24974407 -350.37518883 1601.68756294 C-354.75012758 1603.04170316 -359.12506365 1604.39585201 -363.5 1605.75 C-365.24999999 1606.29166671 -366.99999999 1606.83333337 -368.75 1607.375 C-369.61625 1607.643125 -370.4825 1607.91125 -371.375 1608.1875 C-430 1626.33333333 -488.625 1644.47916667 -547.25 1662.625 C-548.11625913 1662.89312783 -548.98251825 1663.16125566 -549.87502766 1663.43750858 C-551.62493545 1663.97914669 -553.37484326 1664.52078475 -555.12475109 1665.06242275 C-559.50116198 1666.41702586 -563.87757257 1667.77162992 -568.25398254 1669.12623596 C-576.11213459 1671.5585254 -583.97028865 1673.99080832 -591.82845402 1676.4230547 C-596.18121042 1677.7703129 -600.53396505 1679.11757683 -604.88671875 1680.46484375 C-606.18080941 1680.86539128 -606.18080941 1680.86539128 -607.50104332 1681.27403069 C-620.08719362 1685.16971439 -632.67324115 1689.06572999 -645.25923538 1692.96191788 C-709.11873632 1712.73052373 -709.11873632 1712.73052373 -740.67730713 1722.48175049 C-762.18279412 1729.1269185 -783.68533957 1735.78157758 -805.1875 1742.4375 C-806.07857452 1742.71332916 -806.96964905 1742.98915833 -807.88772583 1743.27334595 C-816.0937396 1745.81350314 -824.29973269 1748.3537271 -832.50570679 1750.89401245 C-845.0414846 1754.77465331 -857.57734492 1758.65502751 -870.11328125 1762.53515625 C-871.40759095 1762.93577176 -871.40759095 1762.93577176 -872.72804832 1763.34448051 C-877.0784327 1764.69101241 -881.42881866 1766.03753922 -885.77920532 1767.38406372 C-893.64387074 1769.81832467 -901.50852212 1772.252631 -909.37317467 1774.68693352 C-913.74878255 1776.04129083 -918.12439132 1777.39564527 -922.5 1778.75 C-924.25 1779.29166665 -926 1779.83333332 -927.75 1780.375 C-1014.375 1807.1875 -1101 1834 -1442.25 1939.625 C-1443.11625913 1939.89312783 -1443.98251825 1940.16125566 -1444.87502766 1940.43750858 C-1446.62493545 1940.97914669 -1448.37484326 1941.52078475 -1450.12475109 1942.06242275 C-1454.50116198 1943.41702586 -1458.87757257 1944.77162992 -1463.25398254 1946.12623596 C-1471.11213459 1948.5585254 -1478.97028865 1950.99080832 -1486.82845402 1953.4230547 C-1491.18121042 1954.7703129 -1495.53396505 1956.11757683 -1499.88671875 1957.46484375 C-1500.74944586 1957.73187544 -1501.61217297 1957.99890713 -1502.50104332 1958.27403069 C-1515.08719362 1962.16971439 -1527.67324115 1966.06572999 -1540.25923538 1969.96191788 C-1604.11873632 1989.73052373 -1604.11873632 1989.73052373 -1635.67730713 1999.48175049 C-1657.18279412 2006.1269185 -1678.68533957 2012.78157758 -1700.1875 2019.4375 C-1701.07857452 2019.71332916 -1701.96964905 2019.98915833 -1702.88772583 2020.27334595 C-1711.0937396 2022.81350314 -1719.29973269 2025.3537271 -1727.50570679 2027.89401245 C-1744.39541016 2033.12247725 -1761.28529967 2038.35034061 -1778.17522812 2043.57807827 C-1784.27161458 2045.46502223 -1790.36798816 2047.35200784 -1796.46435547 2049.23901367 C-1810.54600064 2053.59768916 -1824.62764743 2057.95635938 -1838.70947266 2062.31445312 C-1839.59601312 2062.58882832 -1840.48255358 2062.86320351 -1841.3959589 2063.1458931 C-1845.8697432 2064.53047305 -1850.34355761 2065.91495553 -1854.81742859 2067.29925537 C-1863.66830871 2070.03801754 -1872.51864831 2072.77850563 -1881.36791992 2075.52246094 C-1884.83896743 2076.59850909 -1888.31008303 2077.6743373 -1891.78125 2078.75 C-1892.63265879 2079.0138575 -1893.48406757 2079.277715 -1894.36127663 2079.54956818 C-1905.74739645 2083.07711309 -1917.14199851 2086.57563194 -1928.5446701 2090.04927635 C-1969.64845895 2102.57706929 -2010.36831664 2115.96063334 -2050.72998047 2130.72607422 C-2051.39597763 2130.96845322 -2052.06197479 2131.21083221 -2052.74815369 2131.46055603 C-2054.37596789 2132.05446284 -2056.00148934 2132.65464478 -2057.62670898 2133.25561523 C-2060 2134 -2060 2134 -2063 2134 C-2063 1789.48 -2063 1444.96 -2063 1090 C-2036.27 1079.11 -2036.27 1079.11 -2009 1068 C-1996.11198044 1062.73086493 -1983.22427509 1057.46105138 -1970.33886719 1052.18554688 C-1962.14663357 1048.83166681 -1953.95329733 1045.48048184 -1945.7600708 1042.12902832 C-1941.17333791 1040.25278974 -1936.58667227 1038.37638676 -1932 1036.5 C-1930.16666699 1035.74999921 -1928.33333366 1034.99999921 -1926.5 1034.25 C-1925.5925 1033.87875 -1924.685 1033.5075 -1923.75 1033.125 C-1921 1032 -1918.25 1030.875 -1915.5 1029.75 C-1914.13878777 1029.19314011 -1914.13878777 1029.19314011 -1912.75007629 1028.62503052 C-1910.9164893 1027.87492721 -1909.08290165 1027.12482548 -1907.24931335 1026.37472534 C-1902.66985578 1024.50131896 -1898.09040943 1022.62788517 -1893.51098633 1020.75439453 C-1885.21474286 1017.3603447 -1876.91841448 1013.96650315 -1868.62167358 1010.57366943 C-1850.24398216 1003.05835705 -1831.86794746 995.5391004 -1813.5 988 C-1794.19996048 980.07832362 -1774.89085056 972.17889151 -1755.58056641 964.28222656 C-1747.30170004 960.89662564 -1739.02335047 957.50976145 -1730.7449646 954.12298584 C-1726.16333116 952.24860485 -1721.58166386 950.37430664 -1717 948.5 C-1715.1666665 947.7500004 -1713.33333317 947.0000004 -1711.5 946.25 C-1707.83333333 944.75 -1704.16666667 943.25 -1700.5 941.75 C-1699.13878777 941.19314011 -1699.13878777 941.19314011 -1697.75007629 940.62503052 C-1695.9164893 939.87492721 -1694.08290165 939.12482548 -1692.24931335 938.37472534 C-1687.66985578 936.50131896 -1683.09040943 934.62788517 -1678.51098633 932.75439453 C-1670.21474286 929.3603447 -1661.91841448 925.96650315 -1653.62167358 922.57366943 C-1635.24398216 915.05835705 -1616.86794746 907.5391004 -1598.5 900 C-1579.19996048 892.07832362 -1559.89085056 884.17889151 -1540.58056641 876.28222656 C-1532.30170004 872.89662564 -1524.02335047 869.50976145 -1515.7449646 866.12298584 C-1511.16333116 864.24860485 -1506.58166386 862.37430664 -1502 860.5 C-1500.1666665 859.7500004 -1498.33333317 859.0000004 -1496.5 858.25 C-1469 847 -1469 847 -1441.5 835.75 C-1440.59252518 835.37876007 -1439.68505035 835.00752014 -1438.75007629 834.62503052 C-1436.9164893 833.87492721 -1435.08290165 833.12482548 -1433.24931335 832.37472534 C-1428.66985578 830.50131896 -1424.09040943 828.62788517 -1419.51098633 826.75439453 C-1411.21494131 823.36042588 -1402.91881194 819.96666413 -1394.62226868 816.57391357 C-1389.97729072 814.67441034 -1385.33237842 812.77474661 -1380.6875 810.875 C-1379.78490448 810.50584473 -1378.88230896 810.13668945 -1377.95236206 809.75634766 C-1362.65265286 803.49842975 -1347.35811378 797.22795893 -1332.06713867 790.94873047 C-1330.89992783 790.46954666 -1330.89992783 790.46954666 -1329.70913696 789.98068237 C-1328.26917583 789.38950941 -1326.8292895 788.79815422 -1325.38949585 788.20657349 C-1323.59368832 787.46936329 -1321.79688683 786.73457558 -1320 786 C-1318.6241272 785.41025391 -1318.6241272 785.41025391 -1317.22045898 784.80859375 C-1315 784 -1315 784 -1312 784 C-1312 948.34 -1312 1112.68 -1312 1282 C-1270.42 1269.625 -1270.42 1269.625 -1228 1257 C-1206.36318071 1250.56646071 -1184.7262873 1244.13317745 -1163.08886719 1237.70166016 C-1153.90550913 1234.97198182 -1144.7222707 1232.24190118 -1135.5390625 1229.51171875 C-1134.77477306 1229.28449442 -1134.01048363 1229.05727009 -1133.22303391 1228.82316017 C-1129.36037813 1227.67478526 -1125.49772408 1226.52640455 -1121.6350708 1225.37802124 C-1114.69401382 1223.31441838 -1107.7529416 1221.25086679 -1100.81187057 1219.18731117 C-1096.9579131 1218.04154287 -1093.1039566 1216.89577127 -1089.25 1215.75 C-1087.70833334 1215.29166665 -1086.16666667 1214.83333332 -1084.625 1214.375 C-1083.861875 1214.148125 -1083.09875 1213.92125 -1082.3125 1213.6875 C-1080 1213 -1077.6875 1212.3125 -1075.375 1211.625 C-1074.2303158 1211.28468844 -1074.2303158 1211.28468844 -1073.06250668 1210.93750191 C-1071.52081781 1210.47916203 -1069.97912889 1210.02082234 -1068.43743992 1209.56248283 C-1064.58361239 1208.41675123 -1060.72978584 1207.27101633 -1056.8759613 1206.12527466 C-1049.93441265 1204.06155638 -1042.9928571 1201.9978613 -1036.05126476 1199.93428993 C-1032.19172373 1198.78693881 -1028.33218846 1197.6395683 -1024.47265625 1196.4921875 C-1023.7086809 1196.26506954 -1022.94470554 1196.03795158 -1022.15757942 1195.80395126 C-1011.44669111 1192.61972974 -1000.73612384 1189.43443038 -990.02576447 1186.24843025 C-983.16308408 1184.20703657 -976.30031496 1182.16594123 -969.4375 1180.125 C-968.29959141 1179.78659277 -968.29959141 1179.78659277 -967.13869476 1179.44134903 C-941.29362154 1171.75542499 -915.44185803 1164.09222537 -889.58791351 1156.436203 C-862.57333504 1148.43627829 -835.56522953 1140.41482787 -808.5625 1132.375 C-807.68726181 1132.11440544 -806.81202362 1131.85381088 -805.91026306 1131.58531952 C-798.89801997 1129.49745072 -791.88580607 1127.40948388 -784.87363052 1125.32138824 C-767.13879504 1120.04031605 -749.40208446 1114.76556176 -731.6646843 1109.49311066 C-729.37704822 1108.81310884 -727.08941753 1108.13308892 -724.80178833 1107.45306396 C-718.74069186 1105.65133714 -712.67958562 1103.84964319 -706.61845398 1102.04803467 C-699.01023874 1099.78657129 -691.40205096 1097.52501563 -683.79394531 1095.26318359 C-683.03161622 1095.03654935 -682.26928713 1094.8099151 -681.48385715 1094.57641315 C-677.62149902 1093.42815253 -673.75915628 1092.27984017 -669.89683533 1091.13145447 C-662.98928486 1089.07766249 -656.08167194 1087.02408254 -649.17362499 1084.97196102 C-645.37481024 1083.84346936 -641.57606019 1082.71476003 -637.77734375 1081.5859375 C-637.02290041 1081.36175203 -636.26845707 1081.13756657 -635.49115181 1080.9065876 C-624.75905766 1077.71703907 -614.03013148 1074.51699999 -603.3031311 1071.31036377 C-597.23303522 1069.49586985 -591.16215227 1067.68401584 -585.09108925 1065.87276077 C-580.12301904 1064.39030272 -575.15603417 1062.90427727 -570.18982029 1061.41561317 C-567.13644202 1060.50126012 -564.08206204 1059.5902912 -561.02738762 1058.68027878 C-559.60782926 1058.25661026 -558.18869774 1057.8315086 -556.77002144 1057.40489578 C-554.83421724 1056.82297237 -552.89676507 1056.24653934 -550.95922852 1055.67041016 C-549.87448746 1055.34593903 -548.7897464 1055.0214679 -547.6721344 1054.68716431 C-545 1054 -545 1054 -542 1054 C-542.00280765 1053.43616645 -542.0056153 1052.8723329 -542.00850803 1052.29141348 C-542.31357606 990.89908762 -542.59626898 929.50667787 -542.76217651 868.11380005 C-542.76590405 866.73797593 -542.76590405 866.73797593 -542.7697069 865.33435739 C-542.82358057 845.40027253 -542.87344365 825.46617954 -542.91917593 805.53207438 C-542.94162778 795.7562444 -542.96496578 785.98041662 -542.98876953 776.20458984 C-542.99112319 775.23178303 -542.99347686 774.25897623 -542.99590184 773.25669042 C-543.072592 741.73105655 -543.20778403 710.20600381 -543.37334997 678.68072193 C-543.54319659 646.28147747 -543.65395153 613.88255454 -543.69046982 581.48287241 C-543.69565653 576.90556407 -543.70151799 572.32825683 -543.70779037 567.75094986 C-543.70900399 566.85007967 -543.7102176 565.94920948 -543.71146799 565.02104019 C-543.73273061 550.52538012 -543.81619047 536.03071491 -543.92297661 521.53546038 C-544.02903217 506.95887442 -544.06940362 492.38327358 -544.04302479 477.80631541 C-544.02934362 469.14732116 -544.06572249 460.4919351 -544.17435578 451.83359334 C-544.24202417 446.04409897 -544.24383977 440.25695753 -544.19297264 434.46729852 C-544.16586081 431.16963397 -544.17660148 427.88011023 -544.24789728 424.5829104 C-544.63534571 405.55613131 -544.63534571 405.55613131 -540.21487626 399.59115687 C-535.99005335 395.3542856 -531.25547596 392.16433817 -526.07722305 389.20535971 C-523.47070181 387.69286172 -521.11985079 385.92432568 -518.75390625 384.0625 C-517.35861497 383.03914751 -515.96153349 382.0182305 -514.5625 381 C-512.97392537 379.83598248 -511.38538473 378.67191857 -509.796875 377.5078125 C-509.00732422 376.93063477 -508.21777344 376.35345703 -507.40429688 375.75878906 C-503.36757297 372.80584847 -499.33966084 369.84096333 -495.3125 366.875 C-494.52109619 366.29234375 -493.72969238 365.7096875 -492.91430664 365.109375 C-487.27183815 360.95023285 -481.6589047 356.75326254 -476.05786133 352.53857422 C-470.09116237 348.0544646 -464.0800037 343.63184863 -458.06640625 339.2109375 C-453.02392662 335.50058782 -448.00230726 331.76430538 -443 328 C-437.27630328 323.69289672 -431.5222483 319.42929949 -425.75 315.1875 C-419.13865091 310.32842718 -412.5577931 305.43110318 -406 300.5 C-398.65300221 294.97545789 -391.27059301 289.50193742 -383.86328125 284.05859375 C-378.23520087 279.91947307 -372.63982598 275.73901937 -367.05761719 271.53833008 C-361.09092077 267.05440668 -355.07991241 262.63178152 -349.06640625 258.2109375 C-344.02392665 254.50058784 -339.00230424 250.76430943 -334 247 C-327.38860459 242.02482518 -320.73296318 237.11187341 -314.06640625 232.2109375 C-309.02392662 228.50058782 -304.00230726 224.76430538 -299 221 C-293.27630328 216.69289672 -287.5222483 212.42929949 -281.75 208.1875 C-275.13865091 203.32842718 -268.5577931 198.43110318 -262 193.5 C-254.65300221 187.97545789 -247.27059301 182.50193742 -239.86328125 177.05859375 C-234.23520087 172.91947307 -228.63982598 168.73901937 -223.05761719 164.53833008 C-217.09092077 160.05440668 -211.07991241 155.63178152 -205.06640625 151.2109375 C-200.02392662 147.50058782 -195.00230726 143.76430538 -190 140 C-184.27630328 135.69289672 -178.5222483 131.42929949 -172.75 127.1875 C-166.13865091 122.32842718 -159.5577931 117.43110318 -153 112.5 C-145.65300221 106.97545789 -138.27059301 101.50193742 -130.86328125 96.05859375 C-125.23520087 91.91947307 -119.63982598 87.73901937 -114.05761719 83.53833008 C-108.09092077 79.05440668 -102.07991241 74.63178152 -96.06640625 70.2109375 C-91.02392665 66.50058784 -86.00230424 62.76430943 -81 59 C-74.38860459 54.02482518 -67.73296318 49.11187341 -61.06640625 44.2109375 C-55.37068936 40.01992378 -49.70594965 35.78981991 -44.05639648 31.53686523 C-38.12982284 27.08181825 -32.15416449 22.69484533 -26.17407227 18.31201172 C-19.7862446 13.6157912 -13.48962971 8.8071656 -7.25415039 3.91040039 C-6.5914917 3.39598389 -5.92883301 2.88156738 -5.24609375 2.3515625 C-4.66529053 1.89604004 -4.0844873 1.44051758 -3.48608398 0.97119141 C-2 0 -2 0 0 0 Z " fill="#DEB887" transform="translate(4201,1925)"/>
<path d="M0 0 C0.01650135 58.15275048 0.03230972 116.30550114 0.04760742 174.45825195 C0.04790681 175.59614204 0.04820621 176.73403213 0.04851467 177.90640373 C0.07897318 293.7352861 0.10618467 409.56416869 0.12671701 541.55343204 C0.12702968 543.58109197 0.12734299 545.60875191 0.12765651 547.63641184 C0.13653883 605.08968394 0.14483939 662.5429561 0.15236078 719.99622839 C0.15263915 722.12258554 0.15291756 724.24894268 0.15319599 726.37529983 C0.15328794 727.07759827 0.15337989 727.7798967 0.15347463 728.50347691 C0.15693378 754.91118728 0.16052588 781.31889762 0.16419732 807.72660796 C0.16459611 810.59587764 0.16499338 813.46514732 0.16538927 816.33441701 C0.17473734 884.07715327 0.18647829 951.8198879 0.20599365 1019.56262207 C0.20619896 1020.27586777 0.20640426 1020.98911348 0.20661579 1021.72397269 C0.21344701 1045.44317831 0.22051018 1069.16238385 0.22760532 1092.88158939 C0.2340153 1114.31263982 0.24034201 1135.74369026 0.24639416 1157.17474079 C0.24669242 1158.2307403 0.24669242 1158.2307403 0.24699672 1159.30807312 C0.25942428 1203.38436574 0.26824627 1247.46065796 0.27341938 1291.53695202 C0.27349973 1292.21750248 0.27358008 1292.89805294 0.27366287 1293.59922614 C0.27718852 1323.4846801 0.27996162 1353.37013407 0.2818737 1383.25558818 C0.28268911 1395.94284989 0.28363716 1408.63011158 0.28463173 1421.31737328 C0.28473201 1422.63259757 0.28483229 1423.94782186 0.28493561 1425.30290144 C0.28822854 1467.7269148 0.30105393 1510.15091875 0.31884663 1552.57492832 C0.33671658 1595.28668544 0.34530446 1637.99843342 0.34087196 1680.71019439 C0.34026267 1686.60397388 0.33976054 1692.49775339 0.33932304 1698.3915329 C0.3392334 1699.54694622 0.33914376 1700.70235954 0.3390514 1701.89278538 C0.33790661 1720.23513067 0.34688763 1738.5774567 0.36002959 1756.91979673 C0.37272619 1774.9280287 0.37484865 1792.93623556 0.36549544 1810.94446989 C0.36032735 1821.52039712 0.36349881 1832.096245 0.37865101 1842.67216308 C0.38788189 1849.67939741 0.38640727 1856.68657447 0.37590322 1863.69380693 C0.37024225 1867.67674948 0.36942315 1871.65953668 0.38170573 1875.64246777 C0.39274319 1879.24936103 0.39021707 1882.85596917 0.37642879 1886.46285065 C0.37270912 1888.37958304 0.38382271 1890.29632633 0.39540346 1892.21302734 C0.38834477 1893.33899888 0.38128608 1894.46497042 0.37401349 1895.62506231 C0.37430152 1897.08489239 0.37430152 1897.08489239 0.37459537 1898.57421399 C-0.06576276 1901.42586322 -0.73725811 1902.27340428 -3 1904 C-5.06521606 1904.97872925 -5.06521606 1904.97872925 -7.48486328 1905.84326172 C-8.40407059 1906.17650452 -9.32327789 1906.50974731 -10.27033997 1906.85308838 C-11.2768309 1907.20836609 -12.28332184 1907.5636438 -13.3203125 1907.9296875 C-14.38122604 1908.31203552 -15.44213959 1908.69438354 -16.53520203 1909.08831787 C-18.84544067 1909.91991675 -21.15706435 1910.74767547 -23.46987915 1911.57208252 C-29.09315786 1913.5765766 -34.70842243 1915.60329768 -40.32461739 1917.62752914 C-42.2865986 1918.33427299 -44.24896712 1919.0399325 -46.21141052 1919.74539185 C-58.58648206 1924.19649607 -70.92450007 1928.74629156 -83.25839233 1933.31018066 C-102.24588092 1940.33448029 -121.25719695 1947.28678421 -140.3125 1954.125 C-157.07911665 1960.1424718 -173.83146071 1966.19672734 -190.5625 1972.3125 C-191.63027679 1972.70277374 -192.69805359 1973.09304749 -193.79818726 1973.49514771 C-206.26977954 1978.05544267 -218.73396517 1982.63556613 -231.19140625 1987.234375 C-232.37877884 1987.67268646 -233.56615143 1988.11099792 -234.789505 1988.56259155 C-235.97972763 1989.00197052 -237.16995026 1989.44134949 -238.39624023 1989.89404297 C-240.80582216 1990.78354128 -243.21540875 1991.67302695 -245.625 1992.5625 C-246.81747345 1993.00273499 -248.0099469 1993.44296997 -249.23855591 1993.89654541 C-266.99584721 2000.44947183 -284.78443277 2006.90953393 -302.60089111 2013.29968262 C-318.76360022 2019.09752625 -334.89243465 2024.98209355 -351.00430298 2030.91964722 C-367.58270101 2037.02767228 -384.18623429 2043.06409061 -400.80233383 2049.06874466 C-417.11270655 2054.96293516 -433.42089372 2060.86090867 -449.6875 2066.875 C-466.25566525 2072.99992598 -482.84424079 2079.06846178 -499.4375 2085.125 C-500.11421879 2085.37203171 -500.79093758 2085.61906342 -501.48816299 2085.87358093 C-516.41404219 2091.32215273 -531.3421462 2096.76451313 -546.27734375 2102.1875 C-547.41187988 2102.59947632 -548.54641602 2103.01145264 -549.71533203 2103.43591309 C-559.63012012 2107.03609448 -559.63012012 2107.03609448 -563.25006104 2108.3503418 C-581.99393196 2115.15742104 -600.70711167 2122.04576866 -619.41351318 2128.95504761 C-637.11239001 2135.48974176 -654.84274332 2141.93054655 -672.60171509 2148.29995728 C-688.76414759 2154.09771383 -704.89270657 2159.98219375 -721.00430298 2165.91964722 C-737.58270101 2172.02767228 -754.18623429 2178.06409061 -770.80233383 2184.06874466 C-787.11270655 2189.96293516 -803.42089372 2195.86090867 -819.6875 2201.875 C-836.25566525 2207.99992598 -852.84424079 2214.06846178 -869.4375 2220.125 C-870.11421879 2220.37203171 -870.79093758 2220.61906342 -871.48816299 2220.87358093 C-886.41404219 2226.32215273 -901.3421462 2231.76451313 -916.27734375 2237.1875 C-917.41187988 2237.59947632 -918.54641602 2238.01145264 -919.71533203 2238.43591309 C-929.63012012 2242.03609448 -929.63012012 2242.03609448 -933.25006104 2243.3503418 C-951.99393196 2250.15742104 -970.70711167 2257.04576866 -989.41351318 2263.95504761 C-1007.11239001 2270.48974176 -1024.84274332 2276.93054655 -1042.60171509 2283.29995728 C-1058.76414759 2289.09771383 -1074.89270657 2294.98219375 -1091.00430298 2300.91964722 C-1107.58270101 2307.02767228 -1124.18623429 2313.06409061 -1140.80233383 2319.06874466 C-1157.11270655 2324.96293516 -1173.42089372 2330.86090867 -1189.6875 2336.875 C-1206.25566525 2342.99992598 -1222.84424079 2349.06846178 -1239.4375 2355.125 C-1240.45257818 2355.49554756 -1240.45257818 2355.49554756 -1241.48816299 2355.87358093 C-1256.41404219 2361.32215273 -1271.3421462 2366.76451313 -1286.27734375 2372.1875 C-1287.41187988 2372.59947632 -1288.54641602 2373.01145264 -1289.71533203 2373.43591309 C-1299.63012012 2377.03609448 -1299.63012012 2377.03609448 -1303.25006104 2378.3503418 C-1321.99393196 2385.15742104 -1340.70711167 2392.04576866 -1359.41351318 2398.95504761 C-1377.11239001 2405.48974176 -1394.84274332 2411.93054655 -1412.60171509 2418.29995728 C-1428.76414759 2424.09771383 -1444.89270657 2429.98219375 -1461.00430298 2435.91964722 C-1478.20964781 2442.25866002 -1495.4429973 2448.51843832 -1512.6875 2454.75 C-1529.27459723 2460.74441333 -1545.85254198 2466.760092 -1562.39422607 2472.87875366 C-1576.68029026 2478.16205678 -1590.99463304 2483.3660733 -1605.3125 2488.5625 C-1626.93696908 2496.4110125 -1648.5339221 2504.33169332 -1670.10766602 2512.31860352 C-1681.66677733 2516.59323353 -1693.24053303 2520.81600014 -1704.859375 2524.92578125 C-1707.05733584 2525.70666277 -1709.25525349 2526.48766591 -1711.453125 2527.26879883 C-1715.54677551 2528.72316951 -1719.64627157 2530.15907033 -1723.75 2531.5847168 C-1725.57837091 2532.23286793 -1727.40651009 2532.88167325 -1729.234375 2533.53125 C-1730.05548767 2533.81055862 -1730.87660034 2534.08986725 -1731.72259521 2534.37763977 C-1736.63893581 2536.14642511 -1739.59295539 2538.01517244 -1743 2542 C-1743.99 2541.67 -1744.98 2541.34 -1746 2541 C-1746 2333.1 -1746 2125.2 -1746 1911 C-1737.98421345 1907.66008894 -1730.02497165 1904.47322854 -1721.86328125 1901.55078125 C-1720.72709351 1901.14104568 -1719.59090576 1900.73131012 -1718.42028809 1900.30915833 C-1715.35614569 1899.2044116 -1712.2911415 1898.10209564 -1709.22583389 1897.00058746 C-1703.9809259 1895.11437437 -1698.73897704 1893.21993692 -1693.49664879 1891.3265686 C-1692.16286292 1890.84486506 -1690.82904243 1890.36325737 -1689.49518776 1889.88174438 C-1676.91771861 1885.34106161 -1664.36047109 1880.74655046 -1651.8125 1876.125 C-1647.82174684 1874.65589046 -1643.83085286 1873.18716408 -1639.83984375 1871.71875 C-1638.82454086 1871.34518875 -1637.80923798 1870.9716275 -1636.76316833 1870.58674622 C-1623.14175185 1865.57770971 -1609.50835176 1860.60143454 -1595.875 1855.625 C-1595.20769741 1855.38139236 -1594.54039482 1855.13778473 -1593.85287094 1854.88679504 C-1579.16096354 1849.52332081 -1564.46680044 1844.16615379 -1549.765625 1838.828125 C-1548.62837479 1838.41516174 -1547.49112457 1838.00219849 -1546.31941223 1837.57672119 C-1536.3347311 1833.95114459 -1536.3347311 1833.95114459 -1532.74691772 1832.64855957 C-1515.20680996 1826.27864332 -1497.69267886 1819.84021512 -1480.1875 1813.375 C-1462.38113991 1806.79869237 -1444.55386165 1800.28655042 -1426.6875 1793.875 C-1409.92088335 1787.8575282 -1393.16853929 1781.80327266 -1376.4375 1775.6875 C-1375.36972321 1775.29722626 -1374.30194641 1774.90695251 -1373.20181274 1774.50485229 C-1360.73022046 1769.94455733 -1348.26603483 1765.36443387 -1335.80859375 1760.765625 C-1334.62122116 1760.32731354 -1333.43384857 1759.88900208 -1332.210495 1759.43740845 C-1331.02027237 1758.99802948 -1329.83004974 1758.55865051 -1328.60375977 1758.10595703 C-1326.19417784 1757.21645872 -1323.78459125 1756.32697305 -1321.375 1755.4375 C-1320.18252655 1754.99726501 -1318.9900531 1754.55703003 -1317.76144409 1754.10345459 C-1300.00415279 1747.55052817 -1282.21556723 1741.09046607 -1264.39910889 1734.70031738 C-1248.23639978 1728.90247375 -1232.10756535 1723.01790645 -1215.99569702 1717.08035278 C-1199.41729899 1710.97232772 -1182.81376571 1704.93590939 -1166.19766617 1698.93125534 C-1149.88729345 1693.03706484 -1133.57910628 1687.13909133 -1117.3125 1681.125 C-1100.74433475 1675.00007402 -1084.15575921 1668.93153822 -1067.5625 1662.875 C-1066.88578121 1662.62796829 -1066.20906242 1662.38093658 -1065.51183701 1662.12641907 C-1050.58595781 1656.67784727 -1035.6578538 1651.23548687 -1020.72265625 1645.8125 C-1019.58812012 1645.40052368 -1018.45358398 1644.98854736 -1017.28466797 1644.56408691 C-1007.36987989 1640.96390552 -1007.36987989 1640.96390552 -1003.74993896 1639.6496582 C-985.00606804 1632.84257896 -966.29288833 1625.95423134 -947.58648682 1619.04495239 C-929.89796531 1612.51408158 -912.17786419 1606.07741461 -894.42950439 1599.71112061 C-878.61675997 1594.03806286 -862.8297604 1588.29829975 -847.0625 1582.5 C-846.08925781 1582.14217438 -845.11601562 1581.78434875 -844.11328125 1581.41567993 C-832.66142395 1577.20362178 -821.21709256 1572.97132136 -809.77514648 1568.73242188 C-808.53969841 1568.27478455 -807.30425034 1567.81714722 -806.03136444 1567.34564209 C-803.02088826 1566.23048573 -800.01043383 1565.1152707 -797 1564 C-797.00178355 1563.08844864 -797.00356709 1562.17689728 -797.00540468 1561.23772315 C-797.17438683 1474.60394947 -797.34160409 1387.97007508 -797.43382263 1263.58247375 C-797.43476931 1262.08598359 -797.43571601 1260.58949342 -797.43666273 1259.09300325 C-797.4564587 1227.68138916 -797.47275553 1196.26977403 -797.48501012 1164.8581561 C-797.49116972 1149.07909709 -797.49800173 1133.30003842 -797.50546949 1117.52097997 C-797.50659208 1115.14076623 -797.50769546 1112.76055249 -797.50879804 1110.38033874 C-797.52594583 1073.72769213 -797.55751559 1037.07512764 -797.63085938 1000.42254639 C-797.63243609 999.63446313 -797.63401281 998.84637988 -797.63563731 998.03441531 C-797.66114637 985.32815166 -797.68786563 972.62189055 -797.7147455 959.91562973 C-797.79214795 923.31835042 -797.86060388 886.72115333 -797.86983395 850.12378407 C-797.87002811 849.37121075 -797.87022227 848.61863743 -797.87042232 847.84325887 C-797.8745239 831.32255791 -797.87402303 814.80186042 -797.86916419 798.28115977 C-797.86729026 791.63381356 -797.86607889 784.98646726 -797.86509514 778.33912086 C-797.86490966 777.24783539 -797.86490966 777.24783539 -797.86472044 776.13450375 C-797.86106582 752.69233463 -797.91134778 729.25066176 -797.98991497 705.80863547 C-798.07100491 681.53819467 -798.09213571 657.26843506 -798.04335362 632.99789479 C-798.01710172 619.00001203 -798.03847753 605.00406739 -798.12739631 591.00643245 C-798.18210914 581.66182332 -798.17539995 572.31857485 -798.11832128 562.97398292 C-798.0875403 557.64470816 -798.08386914 552.31916323 -798.15496892 546.99019083 C-798.21914828 542.14052626 -798.20501619 537.29761644 -798.12851899 532.4481881 C-798.11473208 530.70578565 -798.1294249 528.96286476 -798.17613742 527.22103402 C-798.49178197 514.6237173 -798.49178197 514.6237173 -794.33685754 510.24879716 C-790.23986959 506.94291328 -785.775193 504.44714724 -781.0870751 502.08279937 C-778.07352011 500.51933122 -775.29883372 498.68610289 -772.46875 496.8125 C-770.47937168 495.54134576 -768.48978887 494.27051149 -766.5 493 C-756.64494643 486.69982632 -746.81195905 480.36702323 -737 474 C-727.25100649 467.67383539 -717.48027967 461.38322603 -707.6875 455.125 C-700.10557381 450.27941235 -692.53752785 445.41437596 -685 440.5 C-676.39258913 434.8880734 -667.74219304 429.34492861 -659.08398438 423.81176758 C-650.36807652 418.24035122 -641.67755418 412.63090294 -633 407 C-623.25100649 400.67383539 -613.48027967 394.38322603 -603.6875 388.125 C-596.10557381 383.27941235 -588.53752785 378.41437596 -581 373.5 C-572.39258913 367.8880734 -563.74219304 362.34492861 -555.08398438 356.81176758 C-546.36807652 351.24035122 -537.67755418 345.63090294 -529 340 C-519.25100649 333.67383539 -509.48027967 327.38322603 -499.6875 321.125 C-492.10557381 316.27941235 -484.53752785 311.41437596 -477 306.5 C-468.39258913 300.8880734 -459.74219304 295.34492861 -451.08398438 289.81176758 C-442.36807652 284.24035122 -433.67755418 278.63090294 -425 273 C-415.25100649 266.67383539 -405.48027967 260.38322603 -395.6875 254.125 C-388.10557381 249.27941235 -380.53752785 244.41437596 -373 239.5 C-364.39258913 233.8880734 -355.74219304 228.34492861 -347.08398438 222.81176758 C-338.36807652 217.24035122 -329.67755418 211.63090294 -321 206 C-311.25100649 199.67383539 -301.48027967 193.38322603 -291.6875 187.125 C-284.10557381 182.27941235 -276.53752785 177.41437596 -269 172.5 C-260.39258913 166.8880734 -251.74219304 161.34492861 -243.08398438 155.81176758 C-234.36807652 150.24035122 -225.67755418 144.63090294 -217 139 C-207.25100649 132.67383539 -197.48027967 126.38322603 -187.6875 120.125 C-180.10557381 115.27941235 -172.53752785 110.41437596 -165 105.5 C-156.39258913 99.8880734 -147.74219304 94.34492861 -139.08398438 88.81176758 C-130.36807652 83.24035122 -121.67755418 77.63090294 -113 72 C-103.25100649 65.67383539 -93.48027967 59.38322603 -83.6875 53.125 C-76.10557381 48.27941235 -68.53752785 43.41437596 -61 38.5 C-52.39922772 32.89240168 -43.75596155 27.35280162 -35.10375977 21.82495117 C-28.21160474 17.4202468 -21.33256887 12.99627472 -14.47583008 8.53662109 C-11.19479201 6.40569549 -7.90357033 4.29137437 -4.59765625 2.19921875 C-3.60197632 1.56826294 -3.60197632 1.56826294 -2.58618164 0.92456055 C-1 -0 -1 -0 0 0 Z " fill="#DEB887" transform="translate(3884,0)"/>
</svg>
